<svg width="49" height="39" viewBox="0 0 49 39" fill="none" xmlns="http://www.w3.org/2000/svg">
    <g clip-path="url(#clip0_269_146)">
        <path d="M24.6196 31.0924H7.89616L13.7072 16.7958H6.44543L10.1654 7.64026H26.8888L21.0778 21.9369H28.3409L24.6196 31.0924ZM10.9105 29.0852H23.2396L25.3293 23.9441H18.0662L23.8759 9.64746H11.5468L9.45701 14.7886H16.7201L10.9105 29.0852Z"
              fill="white"/>
        <path d="M26.073 9.64733H16.6127L20.334 0.491821H29.7943L26.073 9.64733ZM19.6257 7.64013H24.6917L26.7814 2.49902H21.7154L19.6257 7.64013Z"
              fill="white"/>
        <path d="M44.9583 16.7958H35.4966L39.2179 7.64026H48.6782L44.9583 16.7958ZM38.5109 14.7886H43.5769L45.6653 9.64746H40.5993L38.5109 14.7886Z"
              fill="white"/>
        <path d="M39.1459 31.0923H29.6869L33.4082 21.9368H42.8672L39.1459 31.0923ZM32.6985 29.0851H37.7658L39.8542 23.944H34.7882L32.6985 29.0851Z"
              fill="white"/>
        <path d="M10.0947 31.0923H0.634369L4.35567 21.9368H13.8146L10.0947 31.0923ZM3.64731 29.0851H8.71329L10.803 23.944H5.7357L3.64731 29.0851Z"
              fill="white"/>
        <path d="M28.9786 38.2406H19.5183L28.2349 16.7956H20.9704L24.6917 7.64013H31.9548L34.8603 0.491821H44.3193L28.9786 38.2406ZM22.5312 36.2334H27.5972L41.3077 2.49902H36.2417L33.3362 9.64733H26.0731L23.9833 14.7884H31.2464L22.5312 36.2334Z"
              fill="white"/>
        <path d="M14.4523 38.2406H4.99197L8.71328 29.0851H18.1736L14.4523 38.2406ZM8.00491 36.2334H13.0709L15.1606 31.0923H10.0947L8.00491 36.2334Z"
              fill="white"/>
    </g>
    <defs>
        <clipPath id="clip0_269_146">
            <rect width="48.0439" height="37.7487" fill="white" transform="translate(0.634369 0.491821)"/>
        </clipPath>
    </defs>
</svg>
