<svg width="49" height="39" viewBox="0 0 49 39" fill="none" xmlns="http://www.w3.org/2000/svg"><g clip-path="url(#a)" fill="#fff"><path d="M24.62 31.092H7.896l5.811-14.296H6.445l3.72-9.156H26.89l-5.811 14.297h7.263l-3.721 9.155Zm-13.71-2.007h12.33l2.09-5.14h-7.264l5.81-14.298h-12.33L9.458 14.79h7.263l-5.81 14.296Z"/><path d="M26.073 9.647h-9.46L20.334.492h9.46l-3.721 9.155ZM19.626 7.64h5.066l2.09-5.141h-5.067l-2.09 5.141ZM44.958 16.796h-9.461l3.72-9.156h9.461l-3.72 9.156Zm-6.447-2.007h5.066l2.088-5.142H40.6l-2.088 5.142ZM39.146 31.092h-9.46l3.722-9.155h9.46l-3.722 9.155Zm-6.447-2.007h5.067l2.088-5.141h-5.066l-2.09 5.141ZM10.095 31.092H.635l3.72-9.155h9.46l-3.72 9.155Zm-6.448-2.007h5.066l2.09-5.141H5.736l-2.089 5.141Z"/><path d="M28.979 38.24h-9.46l8.716-21.444H20.97l3.722-9.156h7.263L34.86.492h9.46L28.978 38.24Zm-6.448-2.007h5.066L41.307 2.5h-5.065l-2.906 7.148h-7.263l-2.09 5.141h7.263l-8.715 21.445ZM14.452 38.24h-9.46l3.721-9.155h9.46l-3.72 9.156Zm-6.447-2.007h5.066l2.09-5.14h-5.066l-2.09 5.14Z"/></g><defs><clipPath id="a"><path fill="#fff" d="M.634.492h48.044V38.24H.634z"/></clipPath></defs></svg>