<svg width="948" height="183" viewBox="0 0 948 183" fill="none" xmlns="http://www.w3.org/2000/svg"><g clip-path="url(#a)"><path d="M36.21 145.5h36l-14.8 37h-36l14.8-37ZM130.41 0l-14.69 36.72h-36L94.41 0h36Z" fill="#0D5FBC"/><path d="m123.61 109.5-14.4 36h-73l14.4-36 14.71-36.78H28.56l14.4-36h72.76l-14.4 36-14.71 36.78h37Z" fill="#06D7A0"/><path d="m203.41 0-14.69 36.72-14.4 36-14.71 36.78-14.4 36-14.8 37h-36l14.8-37 14.4-36 14.71-36.78h-37l14.4-36h37L167.41 0h36Z" fill="#0D5FBC"/><path d="m225.46 36.72-14.4 36h-36.74l14.4-36h36.74Z" fill="#06D7A0"/><path d="M14.41 109.5h36.2l-14.4 36H0l14.41-36Z" fill="#0D5FBC"/><path d="m196.91 109.5-14.41 36h-37.29l14.4-36h37.3ZM271.954 129.5v-13.026l38.566-47.746v-.564h-37.232V50.727h63.541v14.207l-36.207 46.565v.564h37.54V129.5h-66.208ZM388.863 131.038c-8.103 0-15.069-1.649-20.898-4.948a33.47 33.47 0 0 1-13.462-14.052c-3.146-6.068-4.719-13.257-4.719-21.565a46.05 46.05 0 0 1 4.719-21.334 34.82 34.82 0 0 1 13.308-14.309 38.631 38.631 0 0 1 20.18-5.128c4.956-.041 9.879.8 14.539 2.487a32.77 32.77 0 0 1 11.795 7.462 34.004 34.004 0 0 1 7.873 12.488 49.884 49.884 0 0 1 2.82 17.565v6h-66.515v-13.54h45.95c.057-2.917-.65-5.798-2.051-8.358a14.927 14.927 0 0 0-5.667-5.718 16.53 16.53 0 0 0-8.385-2.077 16.817 16.817 0 0 0-8.795 2.282 16.37 16.37 0 0 0-5.975 6.102 17.379 17.379 0 0 0-2.205 8.488v12.872a21.9 21.9 0 0 0 2.18 10.103 15.597 15.597 0 0 0 6.179 6.565 18.664 18.664 0 0 0 9.488 2.307 20.648 20.648 0 0 0 6.667-1.026 13.825 13.825 0 0 0 5.179-3.077 13.367 13.367 0 0 0 3.283-5.026l20.206 1.334a27.56 27.56 0 0 1-6.282 12.693 31.58 31.58 0 0 1-12.206 8.41 45.867 45.867 0 0 1-17.206 3ZM450.848 158.886a44.652 44.652 0 0 1-7.769-.641 32.197 32.197 0 0 1-5.975-1.564l4.924-16.36c3.863 1.197 7.119 1.513 9.769.949 2.649-.564 4.743-2.624 6.282-6.18l1.283-3.333-28.258-81.03h22.975l16.308 57.849h.821l16.462-57.848 23.129.102-30.616 87.183a36.776 36.776 0 0 1-5.975 11.001 25.366 25.366 0 0 1-9.513 7.282 33.53 33.53 0 0 1-13.847 2.59ZM542.527 130.987a32.56 32.56 0 0 1-13.437-2.641 21.236 21.236 0 0 1-9.308-7.846c-2.274-3.47-3.41-7.804-3.41-13.001a22.966 22.966 0 0 1 2.41-11.025 19.529 19.529 0 0 1 6.565-7.18 31.815 31.815 0 0 1 9.462-4.104 71.248 71.248 0 0 1 11.154-1.948c4.581-.479 8.274-.932 11.078-1.36a15.466 15.466 0 0 0 6.102-1.922 4.284 4.284 0 0 0 1.898-3.795v-.308a9.486 9.486 0 0 0-3.052-7.539c-2.034-1.777-4.915-2.666-8.641-2.667-3.932 0-7.06.864-9.385 2.59a12.16 12.16 0 0 0-4.616 6.487l-20.205-1.64a27.627 27.627 0 0 1 6.051-12.437 29.354 29.354 0 0 1 11.667-8.102 44.657 44.657 0 0 1 16.591-2.847c4.244-.016 8.474.5 12.59 1.538a33.226 33.226 0 0 1 10.718 4.77 23.356 23.356 0 0 1 7.411 8.282 25.16 25.16 0 0 1 2.718 12.078v53.13h-20.719v-10.924h-.615a21.915 21.915 0 0 1-5.077 6.487 22.877 22.877 0 0 1-7.642 4.36 31.124 31.124 0 0 1-10.308 1.564Zm6.257-15.077c2.952.06 5.874-.6 8.513-1.924a14.89 14.89 0 0 0 5.795-5.205 13.49 13.49 0 0 0 2.103-7.435v-8.36c-.873.527-1.813.933-2.795 1.205-1.18.359-2.504.683-3.975.974-1.47.29-2.94.547-4.41.77-1.47.222-2.804.419-4 .59-2.307.306-4.566.91-6.718 1.794a10.822 10.822 0 0 0-4.462 3.308 8.23 8.23 0 0 0-1.59 5.154 7.828 7.828 0 0 0 3.257 6.795 13.86 13.86 0 0 0 8.282 2.334ZM604.151 129.5V50.727h21.18v13.745h.82c1.437-4.89 3.847-8.59 7.232-11.103a19.092 19.092 0 0 1 11.692-3.77 33.06 33.06 0 0 1 3.539.206c1.123.112 2.237.3 3.334.564v19.385a28.576 28.576 0 0 0-4.257-.82 38.436 38.436 0 0 0-4.975-.36 17.497 17.497 0 0 0-8.589 2.077 15.433 15.433 0 0 0-5.95 5.77 16.42 16.42 0 0 0-2.179 8.513V129.5h-21.847Z" fill="#06D7A0"/><path d="M667.21 130.833a12.342 12.342 0 0 1-12.309-12.308 11.713 11.713 0 0 1 3.615-8.616 12.232 12.232 0 0 1 13.339-2.657 12.232 12.232 0 0 1 3.97 2.657 11.93 11.93 0 0 1 1.975 14.796 13.187 13.187 0 0 1-4.488 4.462 11.616 11.616 0 0 1-6.102 1.666ZM726.73 130.782a29.483 29.483 0 0 1-16.231-4.641 31.597 31.597 0 0 1-11.488-13.693c-2.821-6.034-4.231-13.444-4.231-22.231 0-9.027 1.453-16.54 4.359-22.54a31.4 31.4 0 0 1 11.617-13.488 29.691 29.691 0 0 1 15.923-4.487 24.468 24.468 0 0 1 11.051 2.23 22.018 22.018 0 0 1 7.181 5.54 29.046 29.046 0 0 1 4.18 6.487h.666V24.471h21.795V129.5h-21.539v-12.616h-.922a28.11 28.11 0 0 1-4.334 6.487 21.837 21.837 0 0 1-7.232 5.309 25.067 25.067 0 0 1-10.795 2.102Zm6.924-17.386c3.228.097 6.39-.927 8.948-2.897a18.284 18.284 0 0 0 5.642-8.128 34.667 34.667 0 0 0 1.974-12.257 34.63 34.63 0 0 0-1.949-12.206 17.53 17.53 0 0 0-5.64-8 14.357 14.357 0 0 0-8.975-2.82 14.165 14.165 0 0 0-9.078 2.923 17.882 17.882 0 0 0-5.59 8.102 34.812 34.812 0 0 0-1.897 12.001 35.184 35.184 0 0 0 1.923 12.129 18.276 18.276 0 0 0 5.59 8.205 13.976 13.976 0 0 0 9.052 2.948ZM825.636 131.038c-8.102 0-15.068-1.649-20.898-4.948a33.476 33.476 0 0 1-13.462-14.052c-3.145-6.068-4.718-13.257-4.718-21.565a46.062 46.062 0 0 1 4.718-21.334 34.83 34.83 0 0 1 13.309-14.309 38.625 38.625 0 0 1 20.179-5.128c4.956-.042 9.879.8 14.539 2.487a32.764 32.764 0 0 1 11.796 7.462 34.002 34.002 0 0 1 7.872 12.488 49.908 49.908 0 0 1 2.821 17.565v6h-66.516v-13.54h45.951c.057-2.917-.651-5.798-2.052-8.358a14.923 14.923 0 0 0-5.667-5.718 16.53 16.53 0 0 0-8.384-2.077 16.811 16.811 0 0 0-8.795 2.282 16.359 16.359 0 0 0-5.975 6.102 17.379 17.379 0 0 0-2.206 8.488v12.872a21.9 21.9 0 0 0 2.18 10.103 15.61 15.61 0 0 0 6.179 6.565 18.668 18.668 0 0 0 9.489 2.307 20.648 20.648 0 0 0 6.667-1.026 13.833 13.833 0 0 0 5.179-3.077 13.38 13.38 0 0 0 3.283-5.026l20.205 1.334a27.546 27.546 0 0 1-6.282 12.693 31.544 31.544 0 0 1-12.206 8.41 45.867 45.867 0 0 1-17.206 3ZM947.573 50.727l-27.54 78.773h-24.616l-27.539-78.773h23.077l16.36 56.362h.82l16.309-56.361h23.129Z" fill="#0D5FBC"/></g><defs><clipPath id="a"><path fill="#fff" d="M0 0h947.573v182.5H0z"/></clipPath></defs></svg>