<svg width="68" height="55" viewBox="0 0 68 55" fill="none" xmlns="http://www.w3.org/2000/svg"><path d="M10.913 43.85h10.849L17.302 55H6.452l4.46-11.15ZM39.302 0l-4.428 11.066H24.025L28.452 0h10.85Z" fill="#0D5FBC"/><path d="m37.252 33-4.34 10.85h-22L15.253 33l4.434-11.084H8.607l4.34-10.85h21.927l-4.34 10.85L26.103 33h11.15Z" fill="#06D7A0"/><path d="m61.302 0-4.428 11.066-4.34 10.85L48.103 33l-4.34 10.85L39.302 55h-10.85l4.46-11.15L37.253 33l4.433-11.084h-11.15l4.34-10.85h11.15L50.452 0h10.85Z" fill="#0D5FBC"/><path d="m67.947 11.066-4.34 10.85H52.535l4.34-10.85h11.072Z" fill="#06D7A0"/><path d="M4.343 33h10.91l-4.34 10.85H0L4.343 33Z" fill="#0D5FBC"/><path d="M59.343 33 55 43.85H43.762L48.102 33h11.24Z" fill="#06D7A0"/></svg>