<svg width="16" height="17" viewBox="0 0 16 17" fill="none" xmlns="http://www.w3.org/2000/svg">
    <g clip-path="url(#clip0_262_136)">
        <path fill-rule="evenodd" clip-rule="evenodd"
              d="M7.93787 0.255859C3.5522 0.255859 0 3.80806 0 8.19373C0 11.7062 2.27221 14.673 5.42752 15.7248C5.82441 15.7942 5.97325 15.5561 5.97325 15.3477C5.97325 15.1592 5.96332 14.5341 5.96332 13.8693C3.96894 14.2364 3.45297 13.3831 3.29422 12.9366C3.20491 12.7084 2.81794 12.0039 2.48058 11.8154C2.20276 11.6665 1.80587 11.2994 2.47066 11.2895C3.09577 11.2796 3.54227 11.865 3.69111 12.1031C4.40552 13.3037 5.54659 12.9664 6.00301 12.758C6.07247 12.242 6.28084 11.8948 6.50905 11.6963C4.74288 11.4979 2.89732 10.8132 2.89732 7.77699C2.89732 6.91375 3.20491 6.19934 3.71095 5.64369C3.63158 5.44524 3.35375 4.63161 3.79033 3.54015C3.79033 3.54015 4.45513 3.33178 5.97325 4.35378C6.60828 4.17518 7.283 4.08588 7.95771 4.08588C8.63243 4.08588 9.30715 4.17518 9.94218 4.35378C11.4603 3.32186 12.1251 3.54015 12.1251 3.54015C12.5617 4.63161 12.2839 5.44524 12.2045 5.64369C12.7105 6.19934 13.0181 6.90383 13.0181 7.77699C13.0181 10.8231 11.1626 11.4979 9.39645 11.6963C9.6842 11.9444 9.93226 12.4206 9.93226 13.1648C9.93226 14.2265 9.92234 15.0798 9.92234 15.3477C9.92234 15.5561 10.0712 15.8042 10.4681 15.7248C12.0439 15.1928 13.4132 14.18 14.3833 12.8291C15.3533 11.4781 15.8753 9.85691 15.8757 8.19373C15.8757 3.80806 12.3235 0.255859 7.93787 0.255859Z"
              fill="#A2A2A2"/>
    </g>
    <defs>
        <clipPath id="clip0_262_136">
            <rect width="15.8757" height="15.8757" fill="white" transform="translate(0 0.255859)"/>
        </clipPath>
    </defs>
</svg>
