<svg width="12" height="12" viewBox="0 0 12 12" fill="none" xmlns="http://www.w3.org/2000/svg">
    <path d="M5.56852 4.43832C5.18618 4.43832 4.87679 4.74745 4.87679 5.13004V8.58867C4.87679 8.97126 5.18618 9.2804 5.56852 9.2804C5.95086 9.2804 6.26024 8.97126 6.26024 8.58867V5.13004C6.26024 4.74745 5.95086 4.43832 5.56852 4.43832Z"
          fill="#6B6C7E"/>
    <path d="M6.26024 3.05487C6.26024 3.43687 5.95086 3.74659 5.56852 3.74659C5.18618 3.74659 4.87679 3.43687 4.87679 3.05487C4.87679 2.67286 5.18618 2.36314 5.56852 2.36314C5.95086 2.36314 6.26024 2.67286 6.26024 3.05487Z"
          fill="#6B6C7E"/>
    <path fill-rule="evenodd" clip-rule="evenodd"
          d="M5.56852 0.287964C7.04722 0.287964 8.43675 0.862995 9.48109 1.9092C10.5275 2.95329 11.1023 4.34324 11.1023 5.82177C11.1023 7.3003 10.5275 8.68814 9.48109 9.73434C8.43675 10.7805 7.04722 11.3556 5.56852 11.3556C4.08982 11.3556 2.70232 10.7805 1.65595 9.73434C0.609576 8.69025 0.0347137 7.3003 0.0347137 5.82177C0.0347137 4.34324 0.609576 2.95329 1.65595 1.9092C2.70029 0.862995 4.08982 0.287964 5.56852 0.287964ZM1.41816 5.82177C1.41816 8.11091 3.2792 9.97212 5.56852 9.97212C7.85783 9.97212 9.71887 8.11091 9.71887 5.82177C9.71887 3.53262 7.85783 1.67142 5.56852 1.67142C3.2792 1.67142 1.41816 3.53262 1.41816 5.82177Z"
          fill="#6B6C7E"/>
</svg>
