<svg width="17" height="17" viewBox="0 0 17 17" fill="none" xmlns="http://www.w3.org/2000/svg">
    <path fill-rule="evenodd" clip-rule="evenodd"
          d="M1.18164 0.458984H14.8154C15.4688 0.458984 16 0.974609 16.0029 1.61206V15.3059C16.0029 15.9402 15.4717 16.459 14.8184 16.459H1.18164C0.52832 16.459 0 15.9402 0 15.3027V1.61206C0 0.974609 0.52832 0.458984 1.18164 0.458984ZM2.37207 14.0933H4.74707V6.45581H2.37207V14.0933ZM2.18164 4.04016C2.18164 2.14648 4.93457 2.14648 4.93457 4.04016C4.93457 5.92773 2.18164 5.86523 2.18164 4.04016ZM11.2627 14.0934H13.6338V9.90271C13.6338 7.84656 13.1904 6.26526 10.7871 6.26526C9.63379 6.26526 8.85938 6.89966 8.54395 7.49963H8.5127V6.45593H6.2373V14.0934H8.60645V10.3184C8.60645 9.32153 8.79395 8.35583 10.0283 8.35583C11.2471 8.35583 11.2627 9.49646 11.2627 10.3809V14.0934Z"
          fill="#A2A2A2"/>
</svg>
