<svg width="16" height="17" viewBox="0 0 16 17" fill="none" xmlns="http://www.w3.org/2000/svg">
    <path fill-rule="evenodd" clip-rule="evenodd"
          d="M14 2.7251H2C0.896484 2.7251 0 3.62198 0 4.7251V12.7251C0 13.8282 0.896484 14.7251 2 14.7251H14C15.1035 14.7251 16 13.8282 16 12.7251V4.7251C16 3.62198 15.1035 2.7251 14 2.7251ZM13 4.7251L8.59961 8.0251C8.24707 8.29073 7.75293 8.29073 7.40039 8.0251L3 4.7251H13ZM2 6.4751V12.7251H14V6.4751L9.7998 9.62509C8.60938 10.4438 7.23438 10.4126 6.2002 9.62509L2 6.4751Z"
          fill="#A2A2A2"/>
</svg>
