<svg width="16" height="17" viewBox="0 0 16 17" fill="none" xmlns="http://www.w3.org/2000/svg">
    <path fill-rule="evenodd" clip-rule="evenodd"
          d="M15.2656 12.1876L15.3525 12.3469C15.5684 12.7594 16.2119 13.975 15.3721 15.0626C15.0127 15.5469 14.2402 16.4376 13.2344 16.85L13.0244 16.9282L12.9375 16.9313C12.709 16.9719 12.4375 16.9813 12.2373 16.9813C11.459 16.9813 7.40919 16.7969 3.92189 13.1469C0.240245 9.30005 -0.0439352 4.39069 0.37794 3.42816C0.831065 2.45007 1.7588 1.70941 2.26856 1.35944C2.47755 1.22504 2.67774 1.13757 2.89356 1.07507C3.08692 1.02502 3.25587 1.00317 3.42481 1.00317C4.1006 1.00317 4.65528 1.33191 4.95802 1.51117L4.96583 1.51569L5.12501 1.61255C6.22169 2.28754 6.65333 5.6969 6.65333 5.72815C6.62208 6.4469 6.14064 6.98132 5.45314 7.65631C5.84376 8.4032 6.56837 9.35944 7.09083 9.8938C7.59962 10.4156 8.45021 11.1313 9.23732 11.5907C9.84669 11.025 10.2871 10.6563 10.8154 10.5344L11.1533 10.4875L11.2275 10.4907C11.2588 10.4907 14.6465 11.0657 15.2656 12.1876ZM12.5996 15.1501C13.0781 14.9407 13.6025 14.4001 13.9307 13.9626C14.0274 13.8344 13.9775 13.6251 13.7588 13.2126L13.7246 13.1501C13.3154 12.8845 11.75 12.4219 11.1992 12.3157C11.0322 12.4022 10.6006 12.8048 10.2871 13.0967L10.2432 13.1376C9.84376 13.5219 9.21876 13.6251 8.70899 13.3719C7.65235 12.8344 6.48731 11.8782 5.79689 11.1657C5.09376 10.447 4.10255 9.12195 3.65919 8.09381C3.45314 7.5907 3.56544 7.01569 3.93751 6.61566L3.96876 6.5813L4.02052 6.53027C4.29298 6.26178 4.72267 5.83765 4.83399 5.65009C4.75001 5.10004 4.35939 3.53442 4.10548 3.11255L4.03126 3.06567C3.86231 2.9657 3.54689 2.7782 3.37501 2.82196C3.32814 2.83759 3.28419 2.86255 3.26856 2.87195C2.72169 3.25006 2.26564 3.71881 2.0586 4.11566C1.96876 4.70941 2.10548 8.62506 5.23439 11.8938C8.21192 15.0095 11.5899 15.1688 12.2373 15.1688C12.4307 15.1688 12.5527 15.1563 12.5996 15.1501Z"
          fill="#A2A2A2"/>
</svg>
