<svg width="13" height="13" viewBox="0 0 13 13" fill="none" xmlns="http://www.w3.org/2000/svg">
    <path d="M6.03467 8.91797C5.76611 8.91797 5.50928 8.81171 5.31885 8.62109L3.08154 6.38361C2.68408 5.98987 2.68408 5.34924 3.08154 4.95233C3.4751 4.55548 4.11572 4.55548 4.51221 4.95233L5.03467 5.47424V1.91797C5.03467 1.36487 5.48096 0.917969 6.03467 0.917969C6.5874 0.917969 7.03467 1.36487 7.03467 1.91797V5.47424L7.55615 4.95233C7.75342 4.75549 8.01221 4.65546 8.27197 4.65546C8.53174 4.65546 8.79053 4.75549 8.98779 4.95233C9.38428 5.34607 9.38428 5.98669 8.98779 6.38361L6.75049 8.62109C6.55908 8.81171 6.30322 8.91797 6.03467 8.91797Z"
          fill="#06D7A0"/>
    <path d="M10.0347 8.91797C10.0347 8.36487 10.4819 7.91797 11.0347 7.91797C11.5874 7.91797 12.0347 8.36487 12.0347 8.91797V12.918H0.034668V8.91797C0.034668 8.36487 0.481934 7.91797 1.03467 7.91797C1.5874 7.91797 2.03467 8.36487 2.03467 8.91797V10.918H10.0347V8.91797Z"
          fill="#06D7A0"/>
</svg>
