<svg width="48" height="48" viewBox="0 0 48 48" fill="none" xmlns="http://www.w3.org/2000/svg"><g opacity=".8" fill="#fff" clip-path="url(#a)"><path d="M23.853 46.585c-12.27 0-22.238-9.969-22.238-22.238 0-12.237 9.968-22.206 22.238-22.206 12.237 0 22.206 9.969 22.206 22.206 0 12.269-9.97 22.238-22.206 22.238Zm0-43.39c-11.663 0-21.184 9.49-21.184 21.152s9.49 21.151 21.152 21.151 21.151-9.489 21.151-21.151c.032-11.662-9.457-21.152-21.12-21.152Z"/><path d="M43.247 24.347a.67.67 0 0 1-.128.351c-.096.096-.224.16-.351.128-.064 0-.128 0-.192-.032a.7.7 0 0 1-.16-.096c-.032-.032-.096-.096-.096-.16-.032-.063-.032-.127-.032-.191s0-.128.032-.192a.697.697 0 0 1 .096-.16c.032-.032.096-.096.16-.096.064-.031.128-.031.192-.031.063 0 .127 0 .191.032s.128.063.16.095.096.096.096.16.032.128.032.192ZM5.48 24.283c0 .064 0 .128-.032.192-.032.127-.16.223-.256.255-.064.032-.128.032-.192.032a.515.515 0 0 1-.287-.096c-.096-.064-.128-.128-.192-.223-.032-.096-.064-.192-.032-.288a.476.476 0 0 1 .384-.383c.095-.032.191 0 .287.032a.43.43 0 0 1 .224.191.515.515 0 0 1 .096.288Zm41.887.064a.515.515 0 0 1-.095.287.43.43 0 0 1-.224.192c-.064.032-.128.032-.192.032a.67.67 0 0 1-.351-.128.513.513 0 0 1-.16-.351c0-.064 0-.128.032-.192s.064-.128.096-.16.096-.096.16-.096c.064-.032.127-.032.191-.032s.128 0 .192.032a.697.697 0 0 1 .16.096.351.351 0 0 1 .191.32Zm-.063-1.406a.67.67 0 0 1-.128.351c-.032.032-.096.096-.16.096a.407.407 0 0 1-.383 0c-.064-.032-.128-.064-.16-.096-.064-.064-.128-.16-.128-.255-.032-.096 0-.192.032-.288.032-.064.064-.127.096-.16a.501.501 0 0 1 .703 0 .48.48 0 0 1 .128.352Zm-.16-1.63c0 .064 0 .128-.032.192-.064.128-.16.224-.256.256-.064.032-.127.032-.191.032s-.128 0-.192-.032a.347.347 0 0 1-.256-.256c-.032-.064-.032-.128-.032-.192 0-.063 0-.127.032-.191a.7.7 0 0 1 .096-.16c.032-.032.096-.096.16-.096.064-.032.128-.032.192-.032s.127 0 .191.032a.7.7 0 0 1 .16.096c.032.032.096.096.096.16a.405.405 0 0 1 .032.191Zm-.256-1.661v.128c0 .032-.032.064-.032.128-.032.032-.032.064-.064.096-.032.031-.063.063-.095.063-.032.032-.064.032-.096.064-.032 0-.064.032-.128.032h-.128c-.032 0-.096 0-.128-.032a.43.43 0 0 1-.223-.191.515.515 0 0 1-.096-.288c0-.192.096-.351.287-.447.096-.032.192-.064.288-.032a.641.641 0 0 1 .256.128c.095.127.127.255.16.351Zm-.383-1.566c0 .064 0 .128-.032.192s-.064.128-.096.16c-.064.064-.16.128-.256.128-.095.032-.191 0-.287-.032-.032 0-.064-.032-.096-.064l-.096-.096c-.032-.032-.032-.064-.064-.096s-.032-.064-.032-.128v-.128c0-.031 0-.063.032-.127 0-.032.032-.064.032-.096.032-.032.032-.064.064-.096a.514.514 0 0 1 .352-.16c.127 0 .255.064.351.16.032.032.096.096.096.16.032.096.032.16.032.223Zm-.511-1.565c0 .064 0 .128-.032.192-.064.127-.16.223-.256.255-.064.032-.128.032-.192.032-.063 0-.127 0-.191-.032a.7.7 0 0 1-.16-.096c-.032-.032-.096-.096-.096-.16-.032-.063-.032-.127-.032-.191a.51.51 0 0 1 .383-.48c.096-.031.192 0 .288.032.128.064.224.16.256.256 0 .064 0 .128.032.192Zm-.607-1.534c0 .064 0 .128-.032.192a.697.697 0 0 1-.096.16c-.032.032-.096.095-.16.095-.064.032-.128.032-.192.032-.096 0-.223-.032-.287-.095-.064-.064-.128-.128-.192-.224-.032-.064-.032-.128-.032-.192s0-.128.032-.191c.032-.064.064-.128.096-.16s.096-.096.16-.096c.063-.032.127-.032.191-.032.128 0 .256.064.352.16.064.096.128.223.16.351Zm-.735-1.47a.513.513 0 0 1-.16.352c-.064.064-.128.096-.192.128a.449.449 0 0 1-.447-.064.385.385 0 0 1-.16-.16.461.461 0 0 1-.064-.224c0-.064 0-.16.032-.223.032-.064.064-.128.128-.192s.128-.096.192-.096a.273.273 0 0 1 .223 0c.064.032.128.032.192.096.064.032.096.096.128.16.096.064.128.16.128.223Zm-.831-1.437c0 .064 0 .127-.032.191a.7.7 0 0 1-.096.16c-.032.032-.096.096-.16.096-.063.032-.127.032-.191.032s-.128 0-.192-.032c-.128-.064-.224-.16-.256-.256-.032-.064-.032-.127-.032-.191a.41.41 0 0 1 .128-.32.336.336 0 0 1 .288-.16c.223-.032.447.064.543.288-.032.064 0 .128 0 .192Zm-.927-1.342a.513.513 0 0 1-.16.351c-.031.032-.095.096-.16.096a.407.407 0 0 1-.383 0c-.127-.064-.223-.16-.255-.256-.032-.063-.032-.127-.032-.191s0-.128.032-.192.064-.128.096-.16a.513.513 0 0 1 .351-.16c.064 0 .128 0 .192.032.128.032.224.16.255.256.032.064.064.128.064.224Zm-1.022-1.278a.513.513 0 0 1-.16.351c-.064.064-.16.128-.255.128-.096.032-.192 0-.288-.032-.032 0-.064-.032-.096-.064l-.096-.096c-.032-.032-.032-.064-.064-.096s-.032-.064-.032-.127v-.128c0-.032 0-.096.032-.128 0-.032.032-.064.032-.096.032-.032.032-.064.064-.096a.697.697 0 0 1 .16-.096c.064-.032.128-.032.192-.032s.127 0 .191.032a.7.7 0 0 1 .16.096c.128.096.16.224.16.384Zm-1.118-1.246a.67.67 0 0 1-.128.351c-.064.064-.16.128-.256.128-.096.032-.192 0-.287-.032a.347.347 0 0 1-.256-.256c-.032-.064-.032-.128-.032-.191 0-.288.224-.48.511-.48a.67.67 0 0 1 .352.128c.032.096.096.224.096.352ZM39.54 7.093a.67.67 0 0 1-.127.352.513.513 0 0 1-.352.16.513.513 0 0 1-.351-.16c-.032-.032-.096-.096-.096-.16-.032-.064-.032-.128-.032-.192s0-.128.032-.191c.032-.064.064-.128.096-.16s.096-.096.16-.096c.063-.032.127-.032.191-.032s.128 0 .192.032.128.064.16.096a.67.67 0 0 1 .128.351ZM38.264 6.04a.513.513 0 0 1-.16.351.513.513 0 0 1-.352.16c-.064 0-.127 0-.191-.032s-.128-.064-.16-.096-.096-.096-.096-.16c-.032-.063-.032-.127-.032-.191 0-.096.032-.192.096-.288a.43.43 0 0 1 .224-.191c.095-.032.191-.032.287-.032.096.032.192.064.256.127a.67.67 0 0 1 .128.352Zm-1.343-.927a.67.67 0 0 1-.127.352c-.032.032-.096.096-.16.096-.064.032-.128.032-.192.032s-.128 0-.191-.032a.7.7 0 0 1-.16-.096c-.096-.096-.16-.224-.128-.352a.67.67 0 0 1 .128-.351.513.513 0 0 1 .351-.16c.064 0 .128 0 .192.032.16.064.287.256.287.48Zm-1.437-.862a.67.67 0 0 1-.128.351.501.501 0 0 1-.703 0c-.096-.096-.16-.224-.128-.351 0-.128.064-.256.16-.352.064-.064.16-.128.256-.128.095-.032.191 0 .287.032a.43.43 0 0 1 .224.192.34.34 0 0 1 .032.256Zm-1.438-.767c0 .287-.224.479-.511.479-.064 0-.128 0-.192-.032s-.128-.064-.16-.096-.064-.096-.096-.16c-.032-.063-.032-.127-.032-.191a.67.67 0 0 1 .128-.352.513.513 0 0 1 .352-.16c.287.033.51.256.51.512Zm-1.502-.64a.67.67 0 0 1-.128.352c-.032.032-.095.096-.16.096a.407.407 0 0 1-.383 0 .347.347 0 0 1-.255-.256.407.407 0 0 1 0-.383c.032-.128.16-.224.255-.256a.407.407 0 0 1 .384 0c.16.064.287.256.287.448Zm-1.597-.51c0 .063 0 .127-.032.191a.698.698 0 0 1-.096.16c-.064.032-.096.064-.16.096a.407.407 0 0 1-.383 0 .697.697 0 0 1-.16-.096c-.096-.096-.16-.224-.128-.351 0-.096.032-.192.096-.288a.43.43 0 0 1 .224-.192.653.653 0 0 1 .351 0 .347.347 0 0 1 .256.256c.032.064.032.128.032.224Zm-1.598-.416c0 .064 0 .128-.032.192s-.064.128-.096.16-.095.095-.16.095a.51.51 0 0 1-.638-.255c-.032-.096-.064-.224-.032-.32a.466.466 0 0 1 .191-.287.54.54 0 0 1 .32-.096.517.517 0 0 1 .447.511Zm-1.597-.32c0 .224-.16.448-.384.48-.224.032-.48-.064-.543-.288a.407.407 0 0 1 0-.383c.032-.064.064-.128.096-.16.096-.096.223-.16.351-.128.256-.032.48.192.48.48Zm-1.662-.191v.128c0 .032-.032.096-.032.128-.032.032-.032.063-.064.095s-.064.064-.096.064c-.031.032-.063.032-.095.064-.064.032-.16.032-.224.032-.032 0-.096-.032-.128-.032-.16-.064-.255-.16-.287-.287a.407.407 0 0 1 0-.384c.032-.064.063-.128.095-.16.032-.031.096-.095.16-.095.064-.032.128-.032.192-.032s.128 0 .192.032.127.064.16.096c.031.031.095.095.095.16.032.063.064.127.032.191Zm-1.597-.064c0 .064 0 .128-.032.192a.48.48 0 0 1-.448.32.513.513 0 0 1-.351-.16c-.032-.032-.096-.096-.096-.16-.032-.064-.032-.128-.032-.192s0-.128.032-.192a.698.698 0 0 1 .096-.16c.064-.063.16-.127.255-.127.096-.032.192 0 .288.032a.347.347 0 0 1 .256.255.405.405 0 0 1 .032.192Zm-1.598.032c0 .064 0 .128-.032.192-.032.128-.16.223-.255.255a.407.407 0 0 1-.384 0 .176.176 0 0 1-.16-.096c-.096-.095-.16-.191-.16-.319 0-.064 0-.128.033-.192a.699.699 0 0 1 .095-.16c.032-.031.096-.095.16-.095.064-.032.128-.032.192-.032s.128 0 .192.032c.063.032.127.064.16.096.031.031.095.095.095.16a.538.538 0 0 1 .064.159Zm-1.63.192c0 .064 0 .128-.031.191-.032.064-.064.128-.096.16-.096.096-.224.16-.352.128a.48.48 0 0 1-.351-.128c-.064-.064-.128-.16-.128-.255-.032-.096 0-.192.032-.288.032-.064.064-.128.096-.16s.096-.096.16-.096c.063-.032.127-.032.191-.032s.128 0 .192.032c.128.064.224.16.256.256 0 .064.032.128.032.192Zm-1.629.287a.67.67 0 0 1-.128.352c-.032.032-.096.096-.16.096-.063.032-.127.032-.191.032s-.128 0-.192-.032-.128-.064-.16-.096c-.096-.096-.16-.224-.127-.352 0-.064 0-.128.031-.191.064-.128.16-.224.256-.256.064-.032.128-.032.192-.032.255-.032.479.192.479.48Zm-1.598.384c0 .064 0 .127-.031.191a.699.699 0 0 1-.096.16.463.463 0 0 1-.671 0 .513.513 0 0 1-.16-.351c0-.064 0-.128.032-.192a.699.699 0 0 1 .096-.16c.064-.064.16-.128.255-.128.096-.032.192 0 .288.032a.7.7 0 0 1 .16.096c.032.032.096.096.096.16s.032.128.032.192Zm-1.565.51c0 .065 0 .129-.032.193a.698.698 0 0 1-.096.16c-.032.031-.096.095-.16.095-.064.032-.128.032-.191.032-.064 0-.128 0-.192-.032a.627.627 0 0 1-.288-.287c-.032-.064-.032-.128-.032-.192s0-.128.032-.192.064-.128.096-.16c.032-.031.096-.095.16-.095.064-.032.128-.032.192-.032.063 0 .127.032.191.032.064.032.128.064.16.095.032.032.096.096.096.16.032.096.032.16.064.224Zm-1.534.64a.513.513 0 0 1-.16.351c-.032.032-.095.096-.16.096-.063.032-.127.032-.191.032s-.128 0-.192-.032c-.032-.032-.096-.064-.127-.096a.501.501 0 0 1 0-.703c.031-.031.095-.095.16-.095.063-.032.127-.032.19-.032.065 0 .129 0 .193.032a.697.697 0 0 1 .16.095.48.48 0 0 1 .127.352Zm-1.47.703a.47.47 0 0 1-.479.48c-.064 0-.128 0-.192-.033a.7.7 0 0 1-.16-.096c-.031-.032-.095-.096-.095-.16-.032-.063-.032-.127-.032-.191s0-.128.032-.192a.699.699 0 0 1 .096-.16c.032-.032.096-.095.16-.095a.407.407 0 0 1 .383 0 .7.7 0 0 1 .16.095.67.67 0 0 1 .128.352Zm-1.437.83a.513.513 0 0 1-.16.352c-.032.032-.096.096-.16.096-.064.032-.128.032-.192.032-.063 0-.127 0-.191-.032a.458.458 0 0 1-.256-.64c.032-.063.064-.127.096-.159s.096-.096.16-.096c.064-.032.128-.032.191-.032.064 0 .128 0 .192.032a.43.43 0 0 1 .224.192.51.51 0 0 1 .096.256Zm-1.342.96a.54.54 0 0 1-.096.319.336.336 0 0 1-.288.16c-.095.031-.223 0-.32-.033-.095-.063-.19-.127-.223-.255a.407.407 0 0 1 0-.384.48.48 0 0 1 .447-.32c.064 0 .128 0 .192.033a.697.697 0 0 1 .16.096c.032.032.096.096.096.16 0 .063.032.16.032.223ZM9.41 6.901a.513.513 0 0 1-.16.351c-.032.032-.096.096-.16.096-.064.032-.128.032-.192.032-.063 0-.127 0-.191-.032a.698.698 0 0 1-.16-.096c-.032-.032-.096-.096-.096-.16-.032-.064-.032-.128-.032-.191 0-.064 0-.128.032-.192s.064-.128.096-.16a.513.513 0 0 1 .351-.16c.288 0 .512.224.512.512ZM8.197 8.02c0 .064 0 .128-.032.192-.032.063-.064.127-.096.16-.032.031-.096.095-.16.095-.064.032-.128.032-.192.032a.48.48 0 0 1-.351-.128c-.096-.096-.16-.223-.128-.351 0-.064 0-.128.032-.192s.064-.128.096-.16.096-.095.16-.095a.407.407 0 0 1 .383 0c.128.031.224.16.256.255 0 .064.032.128.032.192Zm-1.15 1.182a.513.513 0 0 1-.16.351.513.513 0 0 1-.352.16c-.064 0-.128 0-.192-.032-.127-.064-.223-.16-.255-.255a.407.407 0 0 1 0-.384c.096-.255.383-.351.639-.255.064.032.128.064.16.096.032.031.095.095.095.16.064.031.064.095.064.159ZM6.023 10.48c0 .064 0 .128-.032.192s-.064.128-.096.16c-.032.031-.096.095-.16.095-.064.032-.127.032-.191.032s-.128 0-.192-.032-.128-.063-.16-.095-.096-.096-.096-.16c-.032-.064-.032-.128-.032-.192 0-.128.064-.255.16-.351a.513.513 0 0 1 .352-.16c.063 0 .127 0 .191.032.128.064.224.16.256.255-.032.096 0 .16 0 .224Zm-.959 1.342c0 .064 0 .128-.032.192-.064.128-.16.223-.255.255-.064.032-.128.032-.192.032s-.128 0-.192-.032a.698.698 0 0 1-.16-.095c-.031-.032-.095-.096-.095-.16-.032-.064-.032-.128-.032-.192s0-.128.032-.192a.43.43 0 0 1 .191-.223c.128-.096.32-.096.48-.032.128.064.223.16.255.255v.192Zm-.862 1.438c0 .064 0 .128-.032.191-.032.064-.064.128-.096.16s-.096.096-.16.096a.407.407 0 0 1-.383 0 .698.698 0 0 1-.16-.096c-.032-.032-.096-.096-.096-.16a.405.405 0 0 1-.032-.191c0-.064 0-.128.032-.192a.43.43 0 0 1 .192-.224.515.515 0 0 1 .287-.095c.128 0 .256.063.352.16.064.095.128.223.096.35Zm-.735 1.47a.513.513 0 0 1-.16.351c-.032.032-.096.096-.16.096-.096.064-.223.064-.351 0-.064-.032-.128-.064-.16-.096a.513.513 0 0 1-.16-.351c0-.064 0-.128.032-.192a.697.697 0 0 1 .096-.16c.064-.064.128-.096.192-.096.064-.032.128-.032.192-.032.127 0 .255.064.351.16.096.064.128.192.128.32Zm-.64 1.501c0 .224-.159.448-.383.48-.095.032-.191 0-.287-.032-.064-.032-.128-.064-.16-.096-.064-.064-.128-.16-.128-.256-.032-.096 0-.192.032-.288 0-.063.064-.127.096-.16a.501.501 0 0 1 .703 0 .48.48 0 0 1 .128.352Zm-.51 1.566a.513.513 0 0 1-.16.351c-.032.032-.064.064-.096.064-.032.032-.064.032-.128.064-.032 0-.064.032-.128.032H1.68c-.032 0-.064-.032-.128-.032-.032-.032-.064-.032-.096-.064l-.096-.096c-.032-.032-.032-.064-.064-.096 0-.031-.032-.063-.032-.127v-.128c0-.032 0-.096.032-.128 0-.032.032-.064.064-.096s.032-.064.064-.096.064-.032.096-.064.064-.032.128-.032h.127c.064 0 .128 0 .192.032.128.064.224.16.256.256a.176.176 0 0 1 .096.16Zm-.416 1.597a.48.48 0 0 1-.128.352c-.064.064-.16.128-.255.128-.096.032-.192 0-.288-.032a.699.699 0 0 1-.16-.096c-.063-.064-.127-.16-.127-.256-.032-.096 0-.191.032-.287a.7.7 0 0 1 .095-.16c.064-.064.16-.128.256-.128.096-.032.192 0 .288.032a.43.43 0 0 1 .223.192c.032.064.064.16.064.255Zm-.32 1.63c0 .064 0 .128-.031.192-.064.127-.16.223-.256.255-.064.032-.128.032-.192.032-.063 0-.127 0-.191-.032-.128-.064-.224-.16-.256-.255a.407.407 0 0 1 0-.384c.032-.064.064-.128.096-.16s.096-.095.16-.095a.407.407 0 0 1 .383 0c.128.063.224.16.256.255.032.064.032.128.032.192Zm-.16 1.63c0 .063 0 .127-.031.191-.064.128-.16.224-.256.256-.064.032-.127.032-.191.032H.816c-.032 0-.064-.032-.128-.032-.032-.032-.064-.032-.096-.064s-.064-.064-.064-.096c-.032-.064-.064-.16-.096-.224v-.127c0-.032.032-.064.032-.128a.43.43 0 0 1 .192-.224.515.515 0 0 1 .288-.096.67.67 0 0 1 .351.128c.064.16.128.288.128.383ZM1.36 24.25c0 .064 0 .128-.032.192s-.064.127-.096.16c-.032.031-.096.095-.16.095a.407.407 0 0 1-.383 0c-.128-.064-.224-.16-.256-.255-.063-.064-.063-.128-.063-.192s0-.128.031-.192c.032-.064.064-.128.096-.16.032-.031.096-.095.16-.095.064-.032.128-.032.192-.032s.128 0 .192.032c.127.064.223.16.287.255 0 .064.032.128.032.192Zm.032 1.598c0 .063 0 .127-.032.191-.064.128-.16.224-.256.256-.063.032-.127.032-.191.032s-.128 0-.192-.032a.698.698 0 0 1-.16-.096c-.032-.032-.096-.096-.096-.16-.032-.064-.032-.128-.032-.191 0-.064 0-.128.032-.192.064-.128.16-.224.256-.256.064-.032.128-.032.192-.032s.128 0 .191.032c.064.032.128.064.16.096s.096.096.096.16c.032.064.032.16.032.192Zm.192 1.693c0 .128-.064.224-.128.32-.032.031-.096.095-.16.095-.064.032-.128.032-.192.032-.063 0-.127 0-.191-.032s-.128-.064-.16-.096c-.064-.064-.096-.095-.128-.16-.032-.063-.032-.095-.032-.16a.67.67 0 0 1 .128-.35c.032-.032.096-.096.16-.096.064-.032.128-.064.191-.064.064 0 .128 0 .192.032a.698.698 0 0 1 .16.096c.096.127.16.255.16.383Zm.287 1.63c0 .063 0 .127-.032.191a.7.7 0 0 1-.096.16.513.513 0 0 1-.351.16c-.064 0-.128 0-.192-.032-.128-.032-.223-.16-.255-.256-.032-.064-.032-.128-.032-.192 0-.063 0-.127.032-.191s.064-.128.096-.16c.031-.032.095-.096.16-.096a.558.558 0 0 1 .542.096c.032.032.096.096.096.16 0 .032.032.064.032.16Zm.384 1.597a.513.513 0 0 1-.16.351c-.032.032-.096.096-.16.096a.407.407 0 0 1-.383 0c-.064-.032-.128-.064-.16-.096s-.096-.095-.096-.16c-.032-.063-.032-.127-.032-.191 0-.032 0-.064.032-.128 0-.032.032-.064.032-.096.032-.032.032-.064.064-.096s.064-.063.096-.063c.032-.032.064-.032.096-.064.032 0 .064-.032.127-.032h.128c.032 0 .096.032.128.032a.43.43 0 0 1 .224.191c.032.032.064.128.064.256Zm.51 1.566c0 .063 0 .127-.031.191a.48.48 0 0 1-.447.32c-.128 0-.256-.096-.352-.192-.032-.032-.096-.096-.096-.16-.032-.064-.032-.127-.032-.191s0-.128.032-.192a.347.347 0 0 1 .256-.256.407.407 0 0 1 .383 0 .43.43 0 0 1 .224.192c.032.064.064.16.064.288Zm.64 1.533a.513.513 0 0 1-.16.352c-.032.032-.096.096-.16.096a.407.407 0 0 1-.383 0c-.064-.032-.128-.064-.16-.096s-.096-.096-.096-.16c-.032-.064-.032-.128-.032-.192s0-.128.032-.192c.032-.063.064-.127.096-.16a.501.501 0 0 1 .703 0c.096.097.16.224.16.352Zm.703 1.47a.513.513 0 0 1-.16.351c-.064.064-.16.128-.256.128-.095.032-.191 0-.287-.032-.032 0-.064-.032-.096-.064l-.096-.095c-.032-.032-.032-.064-.064-.096s-.032-.064-.032-.128v-.128c0-.032 0-.096.032-.128 0-.032.032-.064.032-.096.032-.031.032-.063.064-.095s.096-.096.16-.096c.064-.032.128-.032.192-.032.063 0 .127 0 .191.032.224.096.352.255.32.479Zm.862 1.374c0 .064 0 .128-.031.192-.032.127-.16.223-.256.255a.407.407 0 0 1-.383 0 .347.347 0 0 1-.256-.255c-.032-.096-.032-.192-.032-.288a.46.46 0 0 1 .288-.351.407.407 0 0 1 .383 0c.128.032.224.16.256.255 0 .064.031.128.031.192Zm.927 1.374c0 .064 0 .128-.032.192-.032.063-.064.127-.096.16-.032.031-.096.095-.16.095-.063.032-.127.032-.191.032-.032 0-.064 0-.128-.032-.032 0-.064-.032-.128-.032-.032-.032-.064-.032-.096-.064s-.064-.064-.064-.096c-.032-.032-.032-.063-.063-.096 0-.031-.032-.063-.032-.127 0-.096 0-.16.032-.224a.7.7 0 0 1 .095-.16c.064-.064.16-.128.256-.128.256-.063.543.128.575.384.032.032.032.064.032.096Zm1.022 1.278a.513.513 0 0 1-.16.351c-.095.096-.223.16-.35.128-.065 0-.129 0-.192-.032a.698.698 0 0 1-.16-.096c-.032-.032-.096-.096-.096-.16a.407.407 0 0 1 0-.383c0-.032.032-.064.064-.096l.096-.096c.032-.031.064-.031.096-.063l.127-.032h.128c.032 0 .064 0 .128.032s.16.063.192.127a.488.488 0 0 1 .127.32Zm1.119 1.214a.513.513 0 0 1-.16.351c-.032.032-.096.096-.16.096-.064.032-.128.032-.191.032-.064 0-.128 0-.192-.032s-.128-.064-.16-.096a.463.463 0 0 1 0-.67c.032-.032.096-.096.16-.096.064-.032.128-.032.192-.032.063 0 .127 0 .191.032a.699.699 0 0 1 .16.095c.128.064.16.192.16.32Zm1.214 1.118c0 .064 0 .128-.032.192a.697.697 0 0 1-.096.16c-.032.032-.096.096-.16.096a.407.407 0 0 1-.383 0c-.064-.032-.128-.064-.16-.096a.501.501 0 0 1 0-.703c.064-.064.16-.128.256-.128.096-.032.192 0 .287.032a.43.43 0 0 1 .224.192c.032.063.064.16.064.255Zm1.278 1.023a.513.513 0 0 1-.16.351.513.513 0 0 1-.351.16c-.064 0-.128 0-.192-.032-.128-.064-.224-.16-.256-.256-.032-.064-.032-.127-.032-.191 0-.128.064-.256.16-.352.064-.064.16-.128.256-.128.096-.032.192 0 .287.032.16.064.288.224.288.416Zm1.342.958a.47.47 0 0 1-.48.48.67.67 0 0 1-.35-.128c-.033-.032-.097-.096-.097-.16-.032-.064-.032-.128-.032-.192s0-.128.032-.191c.032-.064.064-.128.096-.16s.096-.096.16-.096c.064-.032.128-.032.192-.032s.127 0 .191.032.128.064.16.096a.67.67 0 0 1 .128.351Zm1.406.83a.48.48 0 0 1-.32.448c-.064.032-.128.032-.192.032a.48.48 0 0 1-.35-.128c-.065-.064-.129-.16-.129-.255-.032-.096 0-.192.032-.288a.43.43 0 0 1 .192-.223c.096-.064.16-.096.255-.096.288.032.512.255.512.51Zm1.47.736c0 .064 0 .128-.032.191-.032.064-.064.128-.096.16-.096.096-.224.16-.352.128h-.128c-.031 0-.063-.032-.095-.032-.032-.032-.064-.032-.096-.064s-.064-.064-.064-.096c-.032-.032-.032-.063-.064-.096-.032-.063-.032-.16-.032-.223 0-.032.032-.096.032-.128.032-.064.064-.128.096-.16s.096-.096.16-.096a.407.407 0 0 1 .383 0c.128.064.224.16.256.256.031.064.031.128.031.16Zm1.533.639a.516.516 0 0 1-.096.287.429.429 0 0 1-.223.192c-.096.032-.192.064-.288.032-.224-.032-.383-.256-.383-.48v-.127c0-.032.032-.064.032-.128.032-.032.032-.064.064-.096s.063-.064.095-.064c.032-.031.064-.031.096-.063.032 0 .064-.032.128-.032.096 0 .16 0 .224.032a.43.43 0 0 1 .223.191c.064.064.096.16.128.256Zm1.566.543c0 .064 0 .128-.032.192a.7.7 0 0 1-.096.16c-.064.063-.16.127-.256.127-.096.032-.191 0-.287-.032a.429.429 0 0 1-.224-.191.446.446 0 0 1-.096-.288c0-.288.224-.48.511-.511.128 0 .256.064.352.16.032.032.096.095.096.16.032.095.032.16.032.223Zm1.597.415a.48.48 0 0 1-.32.448c-.063.032-.127.032-.19.032-.065 0-.129 0-.193-.032-.063-.032-.127-.064-.16-.096a.513.513 0 0 1-.16-.352c0-.127.065-.255.16-.351.065-.064.16-.128.256-.128.096-.032.192 0 .288.032a.7.7 0 0 1 .16.096c.095.096.16.224.16.351Zm1.63.288c0 .064 0 .128-.032.192-.032.063-.064.127-.096.16a.513.513 0 0 1-.352.16c-.031 0-.095 0-.127-.033-.032 0-.064-.032-.096-.032-.032-.032-.064-.032-.096-.064s-.064-.064-.064-.096c-.032-.032-.032-.063-.064-.095-.032-.064-.032-.16-.032-.224 0-.032.032-.096.032-.128.032-.064.064-.128.096-.16s.096-.095.16-.095a.408.408 0 0 1 .383 0c.128.063.224.16.256.255 0 .032.032.096.032.16Zm1.63.192a.67.67 0 0 1-.128.351c-.032.032-.096.096-.16.096-.064.032-.128.032-.192.032s-.128 0-.192-.032c-.127-.064-.223-.16-.255-.256-.032-.064-.032-.128-.032-.191 0-.064 0-.128.032-.192s.064-.128.096-.16.095-.096.16-.096c.063-.032.127-.032.191-.032s.128 0 .192.032.128.064.16.096.095.096.095.16c.032.032.032.096.032.192Zm1.597.032a.67.67 0 0 1-.128.351c-.096.096-.224.16-.351.128h-.128c-.032 0-.064-.032-.096-.032-.032-.032-.064-.032-.096-.064s-.064-.064-.064-.096c-.032-.032-.032-.064-.064-.096 0-.032-.032-.064-.032-.127 0-.096 0-.16.032-.224.064-.128.16-.224.256-.256a.407.407 0 0 1 .383 0c.064.032.128.064.16.096s.096.096.096.16a.347.347 0 0 1 .032.16Zm1.597-.032a.48.48 0 0 1-.32.447.407.407 0 0 1-.383 0c-.031-.032-.095-.064-.127-.096s-.096-.096-.096-.16a.407.407 0 0 1 0-.383.43.43 0 0 1 .192-.224.516.516 0 0 1 .287-.096c.064 0 .128 0 .192.032a.7.7 0 0 1 .16.096c.032.032.095.096.095.16.032.096.032.16 0 .224Zm1.662-.192c0 .064 0 .128-.032.192-.064.127-.16.223-.256.255a.407.407 0 0 1-.383 0 .7.7 0 0 1-.16-.096c-.032-.032-.096-.096-.096-.16a.407.407 0 0 1 0-.383.697.697 0 0 1 .096-.16c.032-.032.096-.095.16-.095.064-.032.128-.032.192-.032s.127 0 .191.032c.128.064.224.16.256.255 0 .064.032.128.032.192Zm1.63-.288c0 .064 0 .128-.033.192-.063.128-.16.224-.255.256-.064.032-.128.032-.192.032s-.128 0-.192-.032-.127-.064-.16-.096c-.095-.096-.16-.224-.127-.352a.47.47 0 0 1 .48-.479c.063 0 .127 0 .19.032a.7.7 0 0 1 .16.096c.033.032.096.096.096.16s.032.127.032.191Zm1.597-.383c0 .064 0 .128-.032.192a.347.347 0 0 1-.256.255.407.407 0 0 1-.383 0 .48.48 0 0 1-.32-.447c0-.064 0-.128.032-.192s.064-.128.096-.16c.032-.031.096-.095.16-.095.064-.032.128-.032.192-.032s.128 0 .191.032c.064.032.128.064.16.096.032.031.096.095.096.16.032.063.032.127.064.191Zm1.566-.511a.67.67 0 0 1-.128.351.513.513 0 0 1-.352.16.48.48 0 0 1-.447-.32.407.407 0 0 1 0-.383.48.48 0 0 1 .447-.32c.064 0 .128 0 .192.033a.697.697 0 0 1 .16.095c.032.032.096.096.096.16.032.064.032.128.032.224Zm1.533-.64c0 .065 0 .129-.032.192a.7.7 0 0 1-.096.16c-.096.096-.223.16-.351.128a.67.67 0 0 1-.352-.128.513.513 0 0 1-.16-.351c0-.064 0-.128.033-.192a.697.697 0 0 1 .096-.16c.063-.064.16-.127.255-.127.096-.033.192 0 .288.031.064.032.127.064.16.096.031.032.095.096.095.16.032.032.064.096.064.192Zm1.47-.734c0 .064 0 .128-.032.191-.032.064-.064.128-.096.16-.096.096-.223.16-.351.128a.67.67 0 0 1-.352-.128c-.064-.064-.128-.16-.128-.255-.032-.096 0-.192.032-.288a.43.43 0 0 1 .192-.224c.096-.063.192-.095.288-.063a.67.67 0 0 1 .351.127c.032.032.096.096.096.16-.032.064 0 .128 0 .192Zm1.406-.863c0 .064 0 .128-.032.192a.697.697 0 0 1-.096.16c-.032.032-.096.063-.16.096a.407.407 0 0 1-.383 0c-.064-.032-.128-.064-.16-.096s-.096-.096-.096-.16c-.032-.064-.032-.128-.032-.192v-.128c0-.032.032-.064.032-.127.032-.032.032-.064.064-.096s.064-.064.096-.064c.032-.032.064-.032.096-.064.032 0 .064-.032.128-.032h.127c.032 0 .096.032.128.032.128.064.224.16.256.256 0 .095.032.16.032.223Zm1.374-.926c0 .063 0 .127-.032.191a.697.697 0 0 1-.096.16c-.032.032-.096.096-.16.096a.588.588 0 0 1-.511-.064.336.336 0 0 1-.16-.288c-.032-.223.064-.479.288-.543a.407.407 0 0 1 .383 0 .347.347 0 0 1 .256.256c0 .064 0 .128.032.192Zm1.278-1.023a.41.41 0 0 1-.128.32.336.336 0 0 1-.288.16.537.537 0 0 1-.543-.288c-.032-.064-.032-.128-.032-.224 0-.064.032-.128.064-.192.032-.063.096-.127.128-.16l.192-.095c.16-.032.287 0 .415.096.064.032.096.096.128.16.032.063.064.16.064.223Zm1.182-1.118c0 .064 0 .128-.032.192-.032.063-.064.127-.096.16-.032.031-.096.095-.16.095-.064.032-.128.032-.191.032-.064 0-.128 0-.192-.032a.347.347 0 0 1-.256-.255c-.032-.064-.032-.128-.032-.192a.41.41 0 0 1 .128-.32.336.336 0 0 1 .288-.16c.096-.031.223 0 .32.032.095.064.191.128.223.256v.192Zm1.15-1.214c0 .064 0 .128-.032.191a.48.48 0 0 1-.447.32h-.128c-.032 0-.064-.032-.128-.032-.032-.032-.064-.032-.096-.064s-.064-.064-.064-.096c-.031-.032-.031-.064-.063-.096 0-.032-.032-.064-.032-.127 0-.096 0-.16.032-.224a.495.495 0 0 1 .255-.256.407.407 0 0 1 .384 0c.063.032.127.064.16.096.031.032.095.096.095.16.032.032.032.064.064.128Zm1.023-1.278c0 .064 0 .128-.032.191-.064.128-.16.224-.256.256-.064.032-.128.032-.192.032s-.127 0-.191-.032a.43.43 0 0 1-.224-.192.515.515 0 0 1-.096-.287.67.67 0 0 1 .128-.352c.032-.032.096-.096.16-.096.064-.032.128-.032.191-.032.064 0 .128 0 .192.032s.128.064.16.096.096.096.096.16c.064.096.064.16.064.224Zm.926-1.342c0 .064 0 .127-.032.191-.064.128-.16.224-.255.256a.407.407 0 0 1-.384 0c-.128-.064-.224-.16-.255-.256a.407.407 0 0 1 0-.383c.032-.128.16-.224.255-.256a.407.407 0 0 1 .384 0 .347.347 0 0 1 .255.256.405.405 0 0 1 .032.192Zm.863-1.438a.513.513 0 0 1-.16.351c-.096.096-.224.16-.351.128a.67.67 0 0 1-.352-.128c-.032-.032-.096-.095-.096-.16-.032-.063-.032-.127-.032-.191s0-.128.032-.192.064-.128.096-.16c.064-.063.16-.127.256-.127.096-.032.191 0 .287.032.064.032.128.063.16.096.096.095.16.223.16.35Zm.735-1.47a.67.67 0 0 1-.128.352c-.032.032-.096.095-.16.095a.408.408 0 0 1-.383 0 .697.697 0 0 1-.16-.095c-.032-.032-.096-.096-.096-.16-.032-.064-.032-.128-.032-.192s0-.128.032-.191c.032-.064.064-.128.096-.16a.481.481 0 0 1 .543-.096.697.697 0 0 1 .16.096c.032.032.096.096.096.16 0 .063.032.127.032.191Zm.639-1.502c0 .032 0 .096-.032.128 0 .032-.032.064-.032.096-.032.032-.032.064-.064.096s-.064.064-.096.064c-.032.032-.064.032-.096.064-.032 0-.064.032-.128.032h-.127c-.032 0-.064-.032-.128-.032a.43.43 0 0 1-.224-.192c-.16-.224-.096-.543.128-.67.096-.065.16-.097.256-.097.064 0 .127 0 .191.032s.128.064.16.096c.128.128.192.256.192.383Zm.51-1.597a.67.67 0 0 1-.127.351.481.481 0 0 1-.543.096.704.704 0 0 1-.16-.096c-.032-.032-.096-.096-.096-.16-.032-.063-.032-.127-.032-.191v-.128c0-.032.032-.064.032-.096.032-.032.032-.064.064-.096s.064-.064.096-.064c.032-.031.064-.031.096-.063.064-.032.16-.032.224-.032.032 0 .096.032.127.032a.43.43 0 0 1 .224.191c.064.064.096.16.096.256Zm.416-1.598a.67.67 0 0 1-.127.352.667.667 0 0 1-.192.128c-.064.032-.16.032-.224.032a.593.593 0 0 1-.224-.064.386.386 0 0 1-.16-.16c-.031-.064-.063-.128-.063-.224 0-.064 0-.16.032-.223a.667.667 0 0 1 .128-.192c.063-.064.127-.096.191-.096.224-.064.48.032.575.256a.453.453 0 0 1 .064.191Zm.288-1.63a.513.513 0 0 1-.16.352c-.032.032-.096.096-.16.096-.064.032-.127.032-.191.032s-.128 0-.192-.032a.495.495 0 0 1-.256-.255.407.407 0 0 1 0-.384c.032-.064.064-.128.096-.16s.096-.095.16-.095c.064-.032.128-.032.192-.032s.127 0 .191.032a.43.43 0 0 1 .224.191.51.51 0 0 1 .096.256Zm.16-1.629c0 .064 0 .128-.032.192s-.064.128-.096.16a.501.501 0 0 1-.703 0c-.032-.032-.096-.096-.096-.16-.032-.096-.032-.192-.032-.287a.642.642 0 0 1 .128-.256c.032-.032.096-.096.16-.096a.407.407 0 0 1 .383 0c.128.064.224.16.256.256a.406.406 0 0 1 .032.191ZM23.853 40.93c-4.825 0-9.522-2.141-12.749-6.071a12.462 12.462 0 0 1-.958-1.31 20.314 20.314 0 0 1-.831-1.406 16.587 16.587 0 0 1-1.95-7.796c0-2.716.672-5.4 1.95-7.796.255-.48.543-.959.83-1.406a15.844 15.844 0 0 1 3.228-3.61 16.637 16.637 0 0 1 12.716-3.611c1.47.192 2.94.607 4.314 1.182.67.288 1.341.64 1.98 1.023.64.383 1.247.798 1.822 1.278a16.792 16.792 0 0 1 6.134 11.31c.064.48.064.959.096 1.47v.16c0 2.716-.67 5.4-1.949 7.796-.255.48-.543.958-.83 1.406-.895 1.342-2.014 2.556-3.26 3.61-.383.32-.798.64-1.278.959-.383.255-.83.543-1.406.83-.479.256-.958.48-1.47.703a16.767 16.767 0 0 1-6.39 1.278Zm0-32.687c-3.707 0-7.35 1.279-10.225 3.643a17.417 17.417 0 0 0-3.163 3.514c-.287.448-.575.895-.799 1.342a16.146 16.146 0 0 0-1.885 7.605c0 2.652.64 5.272 1.885 7.604.256.447.511.927.8 1.342.287.447.606.863.958 1.246 4.537 5.528 12.013 7.38 18.627 4.665.48-.192.959-.415 1.438-.67.543-.288.99-.544 1.342-.8.48-.32.894-.639 1.278-.958 1.214-.99 2.3-2.173 3.163-3.515.288-.447.575-.895.799-1.342 1.214-2.268 1.853-4.856 1.885-7.412v-.16c0-.511-.032-1.055-.064-1.566-.415-4.281-2.588-8.307-5.975-10.99a17.814 17.814 0 0 0-1.79-1.247c-.606-.383-1.277-.703-1.948-.99a15.971 15.971 0 0 0-4.186-1.15 15.698 15.698 0 0 0-2.14-.16Z"/><path d="M23.853 40.13a15.98 15.98 0 0 1-4.57-.67c-.99-.288-1.949-.703-2.843-1.182-3.706-1.981-6.422-5.304-7.668-9.33-.288-.99-.512-2.013-.607-3.036-.448-4.728 1.182-9.361 4.537-12.716.383-.383.767-.735 1.15-1.022a15.766 15.766 0 0 1 14.601-2.908c.991.287 1.95.703 2.844 1.182.895.48 1.757 1.054 2.556 1.726a13.972 13.972 0 0 1 2.173 2.172c2.268 2.748 3.514 6.23 3.578 9.777v.224c0 1.565-.223 3.1-.67 4.569-.32.99-.703 1.949-1.183 2.843-.479.895-1.054 1.79-1.725 2.556a13.968 13.968 0 0 1-2.173 2.173c-.799.64-1.661 1.246-2.556 1.726-.895.479-1.885.894-2.844 1.182a14.427 14.427 0 0 1-4.6.735Zm0-31.088a15.403 15.403 0 0 0-9.714 3.483c-.383.287-.734.639-1.118 1.022A15.155 15.155 0 0 0 8.644 25.85c.096.99.287 1.98.575 2.939 1.182 3.93 3.834 7.125 7.445 9.074.862.48 1.82.863 2.747 1.15 2.908.895 5.975.895 8.883 0 .958-.287 1.885-.67 2.78-1.15a14.714 14.714 0 0 0 2.492-1.661c.767-.64 1.501-1.342 2.108-2.11.64-.766 1.183-1.629 1.662-2.491.48-.895.863-1.822 1.15-2.78.416-1.374.64-2.78.671-4.218v-.223c0-3.547-1.214-6.966-3.45-9.713-.64-.767-1.343-1.502-2.11-2.11a14.71 14.71 0 0 0-2.492-1.66 15.005 15.005 0 0 0-2.78-1.15 14.374 14.374 0 0 0-4.472-.704Z"/><path d="M23.853 46.52C11.647 46.52 1.71 36.585 1.71 24.38c0-12.206 9.905-22.174 22.143-22.174 12.205 0 22.142 9.937 22.142 22.142 0 12.237-9.937 22.174-22.142 22.174Zm0-43.389c-11.727 0-21.248 9.522-21.248 21.216 0 11.726 9.521 21.247 21.248 21.247 11.694 0 21.247-9.521 21.247-21.247C45.068 12.653 35.547 3.13 23.853 3.13Z"/><path d="M43.151 24.347c0 .096-.032.223-.128.287-.064.096-.192.128-.287.128-.096 0-.224-.032-.288-.128-.096-.064-.128-.191-.128-.287 0-.224.192-.416.416-.416.096 0 .223.032.287.128a.39.39 0 0 1 .128.288Zm-37.766-.064c0 .096-.032.224-.128.287-.064.096-.192.128-.288.128-.095 0-.223-.032-.287-.128a.476.476 0 0 1-.128-.287c0-.096.032-.224.128-.288a.476.476 0 0 1 .287-.127c.096 0 .224.032.288.127.096.064.128.16.128.288Zm41.888.064c0 .096-.032.223-.128.287a.476.476 0 0 1-.288.128c-.096 0-.223-.032-.287-.128-.096-.064-.128-.191-.128-.287-.032-.224.16-.416.383-.448.224-.031.416.16.448.384v.064Zm-.032-1.406c0 .096-.032.224-.128.288-.064.095-.192.127-.288.127-.096 0-.223-.032-.287-.128-.096-.063-.128-.191-.128-.287 0-.224.192-.415.415-.415.096 0 .224.032.288.127a.476.476 0 0 1 .128.288Zm-.16-1.63c0 .096-.032.224-.128.288-.064.096-.192.128-.287.128-.096 0-.224-.032-.288-.128-.096-.064-.128-.192-.128-.288 0-.095.032-.223.128-.287.064-.096.192-.128.288-.128.096 0 .223.032.287.128.064.064.128.16.128.287Zm-.288-1.661c0 .096-.032.224-.127.288a.476.476 0 0 1-.288.127c-.096 0-.224-.032-.288-.127a.476.476 0 0 1-.127-.288c0-.096.032-.224.127-.287a.476.476 0 0 1 .288-.128c.224.032.415.191.415.415Zm-.383-1.566c0 .096-.032.224-.128.288a.476.476 0 0 1-.287.128c-.096 0-.224-.032-.288-.128-.096-.064-.128-.192-.128-.288 0-.223.192-.415.416-.415.096 0 .223.032.287.128.096.064.128.192.128.287Zm-.511-1.565c0 .096-.032.224-.128.287a.476.476 0 0 1-.288.128c-.095 0-.223-.032-.287-.128a.476.476 0 0 1-.128-.287c0-.096.032-.224.128-.288a.476.476 0 0 1 .287-.128c.224 0 .416.16.416.416Zm-.607-1.534c0 .096-.032.224-.128.288-.064.096-.192.127-.288.127-.095 0-.223-.031-.287-.127a.476.476 0 0 1-.128-.288c0-.096.032-.223.128-.287.064-.096.192-.128.287-.128.224 0 .416.191.416.415Zm-.735-1.47c0 .096-.032.224-.128.288a.476.476 0 0 1-.288.128c-.095 0-.223-.032-.287-.128a.476.476 0 0 1-.128-.288c0-.095.032-.223.128-.287a.475.475 0 0 1 .288-.128c.223 0 .415.192.415.415Zm-.83-1.437c0 .096-.033.223-.129.287-.064.096-.191.128-.287.128-.096 0-.224-.032-.288-.128-.096-.064-.128-.191-.128-.287 0-.224.192-.416.416-.416.096 0 .223.032.287.128.096.064.128.192.128.288Zm-.927-1.342c0 .095-.032.223-.128.287-.064.096-.192.128-.288.128-.096 0-.224-.032-.287-.128a.476.476 0 0 1-.128-.287c0-.096.032-.224.128-.288a.476.476 0 0 1 .287-.128c.224 0 .416.16.416.416Zm-1.023-1.278c0 .095-.032.223-.128.287-.064.096-.191.128-.287.128-.096 0-.224-.032-.288-.128-.096-.064-.128-.192-.128-.287 0-.096.032-.224.128-.288.16-.16.416-.16.575 0 .064.064.128.16.128.288ZM40.66 8.243c0 .096-.032.224-.128.288a.476.476 0 0 1-.288.128c-.095 0-.223-.032-.287-.128-.096-.064-.128-.192-.128-.288 0-.223.192-.415.415-.415.096 0 .224.032.288.128.096.064.128.16.128.287Zm-1.182-1.15c0 .096-.032.224-.128.288-.064.096-.192.128-.288.128-.096 0-.223-.032-.287-.128a.476.476 0 0 1-.128-.288c0-.223.16-.415.383-.415.096 0 .224.032.288.128.096.064.16.16.16.287ZM38.199 6.04c0 .096-.032.224-.128.287-.064.096-.192.128-.288.128-.096 0-.223-.032-.287-.128a.476.476 0 0 1-.128-.287c0-.224.16-.415.383-.415.096 0 .224.031.288.127.096.064.16.192.16.288Zm-1.342-.927c0 .096-.032.224-.128.288a.476.476 0 0 1-.288.128c-.096 0-.223-.032-.287-.128a.476.476 0 0 1-.128-.288c0-.096.032-.223.128-.287a.476.476 0 0 1 .287-.128c.224 0 .416.16.416.415Zm-1.438-.862c0 .095-.032.223-.128.287-.064.096-.192.128-.287.128-.096 0-.224-.032-.288-.128a.476.476 0 0 1-.128-.287c0-.096.032-.224.128-.288.16-.16.415-.16.575 0 .096.064.128.16.128.288Zm-1.438-.767c0 .096-.032.223-.128.287-.064.096-.192.128-.287.128-.096 0-.224-.032-.288-.128-.096-.064-.128-.191-.128-.287 0-.224.192-.416.416-.416.095 0 .223.032.287.128.064.096.096.192.128.288Zm-1.534-.64c0 .097-.032.224-.127.288a.405.405 0 0 1-.576 0c-.095-.064-.127-.191-.127-.287 0-.224.191-.416.415-.416.096 0 .224.032.288.128a.39.39 0 0 1 .127.288Zm-1.565-.51c0 .095-.032.223-.128.287-.064.096-.192.128-.288.128-.095 0-.223-.032-.287-.128a.476.476 0 0 1-.128-.287c0-.096.032-.224.128-.288a.476.476 0 0 1 .287-.128c.096 0 .224.032.288.128.064.064.128.16.128.288Zm-1.598-.416c0 .096-.032.224-.128.288a.476.476 0 0 1-.287.128c-.224 0-.384-.192-.384-.416 0-.096.032-.223.128-.287a.29.29 0 0 1 .256-.128c.256 0 .415.192.415.415Zm-1.597-.32c0 .097-.032.224-.128.288a.476.476 0 0 1-.288.128.423.423 0 0 1-.415-.415c0-.096.032-.224.128-.288.064-.096.16-.128.287-.128.224 0 .384.16.416.416Zm-1.662-.191c0 .096-.032.224-.128.288-.063.095-.16.127-.287.127-.096 0-.224-.032-.288-.127a.476.476 0 0 1-.127-.288c0-.224.191-.383.415-.383.096 0 .224.032.287.127a.29.29 0 0 1 .128.256Zm-1.597-.064c0 .096-.032.224-.128.288-.064.095-.192.127-.288.127-.096 0-.223-.032-.287-.127a.476.476 0 0 1-.128-.288c0-.096.032-.224.128-.288a.476.476 0 0 1 .287-.127c.096 0 .224.032.288.127a.476.476 0 0 1 .128.288Zm-1.598.032c0 .096-.032.224-.128.288a.476.476 0 0 1-.287.127c-.096 0-.224-.032-.288-.127-.096-.064-.128-.192-.128-.288 0-.224.192-.415.416-.415.096 0 .223.032.287.127.064.096.128.192.128.288Zm-1.661.192c0 .096-.032.223-.128.287-.064.096-.192.128-.288.128-.096 0-.223-.032-.287-.128-.096-.064-.128-.191-.128-.287 0-.096.032-.224.128-.288a.476.476 0 0 1 .287-.128c.224 0 .416.16.416.416 0-.032 0-.032 0 0Zm-1.63.255c0 .096-.032.224-.128.288a.476.476 0 0 1-.287.128c-.096 0-.224-.032-.288-.128a.476.476 0 0 1-.128-.288c0-.223.192-.415.416-.415.096 0 .224.032.287.128a.39.39 0 0 1 .128.287Zm-1.565.416c0 .096-.032.223-.128.287-.064.096-.192.128-.288.128-.096 0-.224-.032-.287-.128-.096-.064-.128-.191-.128-.287 0-.096.032-.224.128-.288.063-.096.16-.128.287-.128.224 0 .416.192.416.416Zm-1.598.51c0 .097-.032.225-.128.288-.064.096-.192.128-.287.128-.096 0-.224-.032-.288-.128-.096-.063-.128-.191-.128-.287-.032-.224.16-.415.384-.447.223-.032.415.16.447.383v.064Zm-1.502.64c0 .096-.032.224-.128.287a.476.476 0 0 1-.287.128c-.096 0-.224-.032-.288-.128-.095-.063-.127-.191-.127-.287a.448.448 0 0 1 .447-.383c.192 0 .351.16.383.383Zm-1.47.703c0 .096-.031.224-.127.287a.405.405 0 0 1-.575 0 .476.476 0 0 1-.128-.287c0-.224.191-.416.415-.416.096 0 .224.032.288.128.064.096.096.192.128.288Zm-1.437.83c0 .096-.032.224-.128.288-.064.096-.16.128-.288.128-.095 0-.223-.032-.287-.128a.476.476 0 0 1-.128-.287c0-.096.032-.224.128-.288a.476.476 0 0 1 .287-.128c.224.032.416.192.416.416Zm-1.342.96c0 .095-.032.223-.128.287a.405.405 0 0 1-.575 0 .476.476 0 0 1-.128-.288c0-.096.032-.224.128-.287.064-.096.192-.128.287-.128.224 0 .416.16.416.415ZM9.347 6.901c0 .095-.032.223-.128.287a.405.405 0 0 1-.575 0c-.096-.064-.128-.192-.128-.287 0-.224.192-.416.415-.416.096 0 .224.032.288.128.064.064.096.16.128.288ZM8.133 8.02c0 .096-.032.223-.128.287a.476.476 0 0 1-.288.128c-.096 0-.223-.032-.287-.128-.096-.064-.128-.191-.128-.287 0-.096.032-.224.128-.288a.476.476 0 0 1 .287-.128c.096 0 .224.032.288.128.064.064.096.16.128.288Zm-1.15 1.182c0 .096-.033.224-.128.288a.405.405 0 0 1-.576 0 .476.476 0 0 1-.127-.288c0-.096.032-.224.127-.288a.476.476 0 0 1 .288-.127c.096 0 .224.032.288.127a.39.39 0 0 1 .127.288ZM5.96 10.48c0 .096-.032.224-.128.288a.476.476 0 0 1-.287.127c-.096 0-.224-.031-.288-.127-.096-.064-.128-.192-.128-.288 0-.224.192-.415.416-.415.095 0 .223.032.287.128.064.095.096.191.128.287Zm-.959 1.342c0 .096-.032.224-.127.288a.476.476 0 0 1-.288.127c-.096 0-.224-.032-.287-.127a.476.476 0 0 1-.128-.288c0-.096.032-.224.128-.288a.476.476 0 0 1 .287-.127c.256 0 .415.191.415.415ZM4.14 13.26c0 .096-.032.223-.128.287-.064.096-.192.128-.288.128-.095 0-.223-.032-.287-.128a.476.476 0 0 1-.128-.287c0-.096.032-.224.128-.288a.476.476 0 0 1 .287-.128c.096 0 .224.032.288.128.064.064.128.16.128.288Zm-.767 1.47c0 .095-.032.223-.128.287-.064.096-.192.128-.287.128-.096 0-.224-.032-.288-.128a.515.515 0 0 1-.096-.287c0-.096.032-.224.128-.288a.476.476 0 0 1 .288-.128c.095 0 .223.032.287.128.064.064.128.16.096.288Zm-.64 1.501c0 .096-.031.224-.127.288a.476.476 0 0 1-.287.128c-.096 0-.224-.032-.288-.128-.096-.064-.128-.192-.128-.288-.032-.223.16-.415.384-.447.223-.032.415.16.447.383.032 0 .032.032 0 .064Zm-.51 1.566c0 .096-.032.223-.128.287-.064.096-.192.128-.288.128-.096 0-.223-.032-.287-.128-.096-.064-.128-.191-.128-.287 0-.096.032-.224.128-.288.064-.096.191-.128.287-.128.224 0 .416.192.416.416Zm-.416 1.597c0 .096-.032.224-.127.288-.064.096-.192.128-.288.128a.423.423 0 0 1-.415-.416c0-.127.064-.223.127-.287.064-.096.192-.128.288-.128.256 0 .447.192.415.415Zm-.287 1.63c0 .096-.032.224-.128.287a.476.476 0 0 1-.288.128c-.095 0-.223-.032-.287-.128-.096-.063-.128-.191-.128-.287 0-.096.032-.224.128-.288a.476.476 0 0 1 .287-.128c.224 0 .416.192.416.416Zm-.192 1.63c0 .095-.032.223-.128.287-.064.096-.191.128-.287.128-.096 0-.224-.032-.288-.128-.096-.064-.128-.192-.128-.288 0-.095.032-.223.128-.287.064-.064.192-.096.288-.096.223 0 .415.16.415.383Zm-.064 1.597c0 .096-.032.224-.128.287a.476.476 0 0 1-.287.128c-.096 0-.224-.032-.288-.128a.476.476 0 0 1-.128-.287c0-.096.032-.224.128-.288a.476.476 0 0 1 .288-.127c.223.032.415.191.415.415Zm.064 1.598c0 .095-.032.223-.128.287a.476.476 0 0 1-.287.128c-.096 0-.224-.032-.288-.128-.096-.064-.128-.192-.128-.287 0-.224.192-.416.416-.416.096 0 .223.032.287.128a.39.39 0 0 1 .128.288Zm.16 1.693c0 .096-.032.224-.128.287-.064.096-.192.128-.288.128-.095 0-.223-.032-.287-.128a.476.476 0 0 1-.128-.287c0-.096.032-.224.128-.288a.476.476 0 0 1 .287-.127c.224 0 .416.191.416.415Zm.287 1.63c0 .095-.032.223-.127.287a.476.476 0 0 1-.288.128c-.096 0-.224-.032-.288-.128-.095-.064-.127-.192-.127-.288 0-.095.032-.223.127-.287a.476.476 0 0 1 .288-.128c.096 0 .224.032.288.128.095.064.127.16.127.287Zm.384 1.597c0 .096-.032.224-.128.288-.064.095-.192.127-.288.127-.095 0-.223-.032-.287-.128-.096-.063-.128-.191-.128-.287 0-.096.032-.224.128-.288.16-.16.415-.16.575 0 .096.064.128.16.128.288Zm.543 1.566c0 .095-.032.223-.128.287-.064.096-.192.128-.287.128-.096 0-.224-.032-.288-.128-.096-.064-.128-.192-.128-.287 0-.096.032-.224.128-.288a.476.476 0 0 1 .288-.128c.095 0 .223.032.287.128.064.064.096.16.128.288Zm.607 1.533c0 .096-.032.224-.128.288a.405.405 0 0 1-.575 0c-.096-.064-.128-.192-.128-.288 0-.096.032-.223.128-.287.064-.096.192-.128.288-.128.096 0 .223.032.287.128.064.064.128.16.128.255v.032Zm.735 1.47c0 .096-.032.224-.128.288-.064.095-.192.127-.287.127-.096 0-.224-.032-.288-.127-.096-.064-.128-.192-.128-.288 0-.096.032-.224.128-.288a.476.476 0 0 1 .288-.127c.223 0 .415.16.415.415 0-.032 0 0 0 0Zm.83 1.438c0 .096-.031.223-.127.287-.064.096-.192.128-.288.128-.096 0-.223-.032-.287-.128-.096-.064-.128-.191-.128-.287 0-.224.192-.416.415-.416.096 0 .224.032.288.128.064.064.128.16.128.256v.032Zm.927 1.31c0 .096-.032.223-.128.287a.476.476 0 0 1-.287.128c-.096 0-.224-.032-.288-.128-.096-.064-.128-.191-.128-.287a.448.448 0 0 1 .448-.384c.223.032.383.16.383.384Zm1.023 1.278c0 .096-.032.224-.128.287a.405.405 0 0 1-.575 0 .476.476 0 0 1-.128-.287c0-.096.032-.224.128-.288.064-.096.191-.128.287-.128.256 0 .416.192.416.416Zm1.15 1.214c0 .096-.032.224-.128.287a.476.476 0 0 1-.287.128c-.096 0-.224-.032-.288-.128-.096-.063-.128-.191-.128-.287 0-.224.192-.415.416-.415.095 0 .223.032.287.127.064.064.128.16.128.288Zm1.182 1.118c0 .096-.032.224-.128.288-.064.096-.191.128-.287.128-.096 0-.224-.032-.288-.128-.096-.064-.128-.192-.128-.288 0-.223.192-.415.416-.415.096 0 .223.032.287.128.096.064.128.191.128.287Zm1.278 1.023c0 .096-.032.223-.128.287a.476.476 0 0 1-.287.128.423.423 0 0 1-.416-.415c0-.096.032-.224.128-.288a.476.476 0 0 1 .288-.128c.096 0 .223.032.287.128a.39.39 0 0 1 .128.288Zm1.342.958c0 .096-.032.224-.128.288-.064.096-.191.128-.287.128-.096 0-.224-.032-.288-.128-.096-.064-.128-.192-.128-.288 0-.096.032-.224.128-.287.16-.16.416-.16.575 0 .096.063.128.16.128.287Zm1.438.83a.423.423 0 0 1-.415.416c-.096 0-.224-.032-.288-.128-.096-.063-.128-.191-.128-.287 0-.096.032-.224.128-.288.16-.16.415-.16.575 0a.39.39 0 0 1 .128.288Zm1.47.736c0 .096-.032.224-.128.287a.476.476 0 0 1-.288.128c-.096 0-.223-.032-.287-.128-.096-.063-.128-.191-.128-.287 0-.096.032-.224.128-.288a.476.476 0 0 1 .287-.128c.224 0 .416.192.416.416Zm1.501.639c0 .096-.032.224-.128.287a.405.405 0 0 1-.575 0 .405.405 0 0 1 0-.575.476.476 0 0 1 .288-.127c.224.031.415.191.415.415Zm1.598.543c0 .096-.032.224-.128.288a.476.476 0 0 1-.288.127c-.095 0-.223-.032-.287-.127-.096-.064-.128-.192-.128-.288 0-.224.192-.415.415-.415.096 0 .224.032.288.127a.476.476 0 0 1 .128.288Zm1.597.415c0 .096-.032.224-.127.288a.476.476 0 0 1-.288.128c-.096 0-.224-.032-.287-.128-.096-.064-.128-.192-.128-.288 0-.223.191-.415.415-.415.096 0 .224.032.288.128.064.064.096.16.127.287Zm1.598.288c0 .096-.032.224-.128.288a.476.476 0 0 1-.287.127c-.096 0-.224-.032-.288-.127-.096-.064-.128-.192-.128-.288 0-.096.032-.224.128-.288a.476.476 0 0 1 .288-.127c.095 0 .223.032.287.127.096.064.128.192.128.288Zm1.661.192c0 .096-.032.223-.127.287a.476.476 0 0 1-.288.128c-.096 0-.224-.032-.287-.128-.096-.064-.128-.191-.128-.287 0-.096.032-.224.128-.288a.476.476 0 0 1 .287-.128c.096 0 .224.032.288.128.064.064.096.16.127.288Zm1.598.032c0 .095-.032.223-.128.287a.476.476 0 0 1-.287.128c-.096 0-.224-.032-.288-.128-.096-.064-.128-.192-.128-.287 0-.224.192-.416.416-.416.095 0 .223.032.287.128.064.096.128.192.128.288Zm1.598-.032c0 .096-.032.223-.128.287-.064.096-.192.128-.288.128-.096 0-.223-.032-.287-.128a.476.476 0 0 1-.128-.287c0-.096.032-.224.128-.288a.476.476 0 0 1 .287-.128.41.41 0 0 1 .32.128c.064.064.096.16.096.288Zm1.629-.192c0 .096-.032.224-.128.288-.064.095-.192.127-.287.127-.096 0-.224-.032-.288-.127-.096-.064-.128-.192-.128-.288 0-.224.192-.415.416-.415.096 0 .223.032.287.127.096.096.16.192.128.288Zm1.63-.288c0 .096-.032.224-.128.288-.064.096-.192.128-.288.128-.096 0-.224-.032-.287-.128a.476.476 0 0 1-.128-.288c0-.223.16-.415.383-.415.096 0 .224.032.288.128.128.096.16.192.16.287Zm1.597-.383c0 .096-.032.224-.128.288a.405.405 0 0 1-.575 0 .476.476 0 0 1-.128-.288c0-.096.032-.224.128-.288a.476.476 0 0 1 .288-.127c.096 0 .223.032.287.127.096.064.128.16.128.288Zm1.566-.511c0 .096-.032.223-.128.287a.405.405 0 0 1-.575 0 .476.476 0 0 1-.128-.287c0-.096.032-.224.128-.288a.476.476 0 0 1 .287-.128c.096 0 .224.032.288.128.096.064.128.16.128.288Zm1.533-.64c0 .097-.032.224-.128.288a.476.476 0 0 1-.287.128c-.096 0-.224-.032-.288-.128-.095-.064-.127-.191-.127-.287 0-.224.191-.416.415-.416.096 0 .224.032.287.128.096.064.128.16.128.288Zm1.47-.734c0 .096-.032.223-.128.287a.476.476 0 0 1-.287.128c-.096 0-.224-.032-.288-.128-.096-.064-.128-.191-.128-.287 0-.224.192-.416.416-.416.096 0 .223.032.287.128.096.064.128.192.128.288Zm1.438-.863c0 .096-.032.224-.128.288a.476.476 0 0 1-.288.127c-.095 0-.223-.031-.287-.127a.476.476 0 0 1-.128-.288c0-.224.192-.415.416-.415.095 0 .223.032.287.128.064.095.128.191.128.287Zm1.342-.926c0 .095-.032.223-.128.287-.064.096-.192.128-.288.128-.095 0-.223-.032-.287-.128-.096-.064-.128-.192-.128-.287 0-.096.032-.224.128-.288.064-.096.192-.128.288-.128.095 0 .223.032.287.128.096.064.128.192.128.288Zm1.278-1.023c0 .096-.032.224-.128.288a.476.476 0 0 1-.288.127.423.423 0 0 1-.415-.415c0-.096.032-.224.128-.287.16-.16.415-.16.575 0 .096.063.128.16.128.287Zm1.214-1.118c0 .096-.032.223-.128.287-.064.096-.191.128-.287.128-.096 0-.224-.032-.288-.128a.476.476 0 0 1-.128-.287c0-.096.032-.224.128-.288.064-.096.192-.127.288-.127.223 0 .415.16.415.415Zm1.118-1.214c0 .096-.032.223-.127.287a.476.476 0 0 1-.288.128c-.096 0-.224-.032-.288-.128-.096-.064-.127-.191-.127-.287 0-.224.191-.416.415-.416.096 0 .224.032.288.128.095.064.127.192.127.288Zm1.023-1.278c0 .096-.032.223-.128.287-.064.096-.192.128-.288.128-.096 0-.223-.032-.287-.128a.476.476 0 0 1-.128-.287c0-.224.16-.416.383-.416.096 0 .224.032.288.128.128.064.16.192.16.288Zm.958-1.342c0 .096-.032.223-.128.287-.063.096-.191.128-.287.128-.096 0-.224-.032-.288-.128a.476.476 0 0 1-.127-.287c0-.224.191-.416.415-.416.096 0 .224.032.287.128.064.064.128.16.128.288Zm.831-1.438c0 .096-.032.224-.128.288a.476.476 0 0 1-.287.127c-.096 0-.224-.032-.288-.127-.096-.064-.128-.192-.128-.288 0-.096.032-.224.128-.288.16-.16.415-.16.575 0a.39.39 0 0 1 .128.288Zm.735-1.47c0 .096-.032.224-.128.288-.064.096-.192.127-.287.127-.096 0-.224-.031-.288-.127-.096-.064-.128-.192-.128-.288 0-.096.032-.224.128-.287a.476.476 0 0 1 .288-.128c.095 0 .223.032.287.128a.39.39 0 0 1 .128.287Zm.639-1.502c0 .096-.032.224-.128.288a.476.476 0 0 1-.288.128.423.423 0 0 1-.415-.416c0-.095.032-.223.128-.287a.476.476 0 0 1 .288-.128c.223 0 .415.16.415.415 0-.032 0 0 0 0Zm.543-1.597c0 .096-.032.224-.128.288-.064.095-.191.127-.287.127-.096 0-.224-.032-.288-.128-.096-.063-.128-.191-.128-.287 0-.224.192-.415.416-.415.096 0 .223.032.287.127.064.096.096.192.128.288Zm.383-1.598c0 .096-.032.224-.127.288-.064.096-.192.128-.288.128-.096 0-.224-.032-.287-.128-.096-.064-.128-.192-.128-.288 0-.095.032-.223.128-.287.063-.096.191-.128.287-.128.256.032.416.192.416.415Zm.288-1.597c0 .096-.032.223-.128.287-.064.096-.191.128-.287.128-.096 0-.224-.032-.288-.128a.476.476 0 0 1-.128-.287c0-.096.032-.224.128-.288a.476.476 0 0 1 .288-.128c.255 0 .415.16.415.416Zm.192-1.662c0 .096-.032.224-.128.288a.476.476 0 0 1-.288.128c-.096 0-.223-.032-.287-.128-.096-.064-.128-.192-.128-.288 0-.095.032-.223.128-.287.064-.096.192-.128.287-.128.224 0 .416.192.416.415ZM23.853 40.865c-4.825 0-9.49-2.108-12.717-6.038-.351-.416-.67-.831-.958-1.278a31.44 31.44 0 0 1-.831-1.374 16.682 16.682 0 0 1-1.95-7.796c0-2.716.672-5.4 1.95-7.764.255-.48.543-.927.83-1.374a17.312 17.312 0 0 1 3.228-3.61 16.341 16.341 0 0 1 12.652-3.58c1.47.192 2.908.608 4.282 1.183a16.61 16.61 0 0 1 1.98 1.022c.64.384 1.247.8 1.822 1.278 3.45 2.748 5.687 6.87 6.102 11.247.064.511.064.99.096 1.502v.128c0 2.716-.67 5.4-1.949 7.764-.255.48-.543.958-.83 1.374a15.754 15.754 0 0 1-3.26 3.578c-.383.32-.798.64-1.277.959-.384.255-.831.543-1.406.83-.48.256-.959.48-1.47.703a16.62 16.62 0 0 1-6.294 1.246Zm0-32.685c-3.707 0-7.381 1.278-10.257 3.674-1.214 1.022-2.3 2.205-3.163 3.546-.287.448-.575.895-.83 1.374-1.247 2.3-1.886 4.953-1.886 7.605s.64 5.304 1.885 7.636c.256.48.512.927.831 1.374.288.447.607.863.959 1.278 4.537 5.496 12.045 7.38 18.691 4.633a14.5 14.5 0 0 0 1.438-.671c.543-.288.99-.543 1.374-.83.479-.32.894-.64 1.278-.96a16.672 16.672 0 0 0 3.195-3.514c.287-.447.575-.895.83-1.374a15.77 15.77 0 0 0 1.886-7.508v-.096c0-.511-.032-1.055-.064-1.598-.416-4.313-2.62-8.339-6.007-11.055a22.42 22.42 0 0 0-1.79-1.246c-.606-.383-1.277-.703-1.948-.99a15.97 15.97 0 0 0-4.186-1.15 17.835 17.835 0 0 0-2.236-.128ZM12.095 10.864l-1.15-1.374-.544.479-.128-.16 1.278-1.086.128.16-.511.447 1.15 1.342-.223.191Zm-1.215 1.15-.543-.192-.575.639.256.543-.16.192-.959-1.917.192-.224 1.981.735-.192.224Zm-.766-.288-.863-.32.415.831.448-.51ZM9.027 14.41c-.128.224-.383.383-.639.447a.958.958 0 0 1-.767-.223c-.255-.128-.415-.384-.479-.64a.95.95 0 0 1 .16-.766c.128-.16.256-.32.415-.48l.224.16c-.16.128-.32.288-.447.448a.558.558 0 0 0-.096.543.871.871 0 0 0 .415.48c.16.127.384.19.607.159a.723.723 0 0 0 .48-.32c.095-.191.191-.383.191-.607l.192.128a1.55 1.55 0 0 1-.256.671Zm-3.514 2.237.127-.256 1.119.543a.64.64 0 0 0 .415.064.454.454 0 0 0 .288-.256.343.343 0 0 0 .032-.351.781.781 0 0 0-.352-.287l-1.118-.544.096-.223 1.118.543c.192.064.351.223.48.415a.644.644 0 0 1-.065.543.67.67 0 0 1-.415.416.984.984 0 0 1-.607-.096l-1.118-.511Zm1.022 2.907.128-.383c.096-.192.064-.448-.032-.64a.953.953 0 0 0-.543-.383.985.985 0 0 0-.607 0 .497.497 0 0 0-.256.192c-.096.128-.16.288-.192.415l-.064.224 1.566.575Zm.128.352-2.045-.64.224-.67c.032-.16.127-.32.223-.48a1.25 1.25 0 0 1 .32-.255.974.974 0 0 1 .735 0c.287.064.543.255.703.511.127.256.16.575.064.863l-.224.67Zm-.607 2.332-1.95-.32.192-1.086.192.032-.128.83.64.097.127-.671.192.032-.128.639.703.128.16-.863.192.032-.192 1.15Z"/><path fill-rule="evenodd" clip-rule="evenodd" d="m12.797 7.828-.223.16 1.086 1.63.224-.128-1.087-1.662Z"/><path d="M41.33 20.353 43.279 20l.191 1.087-.191.032-.16-.799-.639.128.128.67-.192.033-.128-.671-.703.128.16.862-.192.032-.223-1.15Zm-.83-2.62 1.884-.64.096.256-1.118 1.438 1.438-.479.063.224-1.885.639-.096-.256 1.119-1.438-1.438.48-.064-.224Zm-.704-1.885c.064.16.224.287.416.32a1.1 1.1 0 0 0 .638-.128c.192-.096.352-.224.448-.416a.578.578 0 0 0-.032-.511.544.544 0 0 0-.416-.32 1.156 1.156 0 0 0-1.086.576.517.517 0 0 0 .032.479Zm-.192.096c-.127-.224-.127-.48-.063-.735.095-.256.319-.447.575-.575.223-.128.51-.192.798-.128.512.16.767.703.608 1.214-.256.511-.8.799-1.343.703-.255-.064-.479-.224-.575-.48ZM38.2 13.61l.67-.479.544-1.214.191.256-.447.958 1.055-.064.16.224-1.343.096-.67.479-.16-.256Zm-1.055-2.78.064.064c.256.256.48.288.671.096.16-.127.128-.32-.096-.543l-.128-.128c.032 0-.479.511-.51.511Zm-.958.512 1.438-1.374.415.415c.128.096.191.256.224.416a.59.59 0 0 1-.16.383.537.537 0 0 1-.671.096l-.224 1.118-.224-.255.224-.991-.192-.192-.607.575-.223-.191Zm-1.917-1.374 1.31-1.662.926.735-.128.192-.703-.543-.415.543.575.447-.128.192-.575-.48-.479.608.735.575-.128.192-.99-.8Zm-1.566-1.182.351-2.077.256.16-.288 1.725 1.343-1.086.191.064-1.63 1.341-.223-.127ZM30.051 7.54l.767-1.822.99.416-.096.191-.766-.32-.224.576.64.256-.097.191-.639-.255-.287.67.83.352-.064.192-1.086-.447h.032Zm-3.227-1.918.096.032c.351.064.543-.032.607-.319.032-.192-.096-.32-.384-.383l-.16-.032-.159.702Zm-.48.959.352-1.949.575.128a.99.99 0 0 1 .416.192.34.34 0 0 1 .064.383c-.032.256-.256.447-.512.48l.48 1.022-.352-.064-.383-.927-.256-.064-.16.831-.223-.032Zm-1.916-.16c.191.032.383-.064.51-.223.129-.192.193-.416.193-.671a.92.92 0 0 0-.16-.64.563.563 0 0 0-.48-.255.636.636 0 0 0-.51.224 1.152 1.152 0 0 0-.192.639c-.032.223.032.479.16.67.095.16.287.256.479.256Zm0 .224a.968.968 0 0 1-.703-.32c-.192-.223-.256-.543-.224-.83 0-.288.096-.575.288-.8.415-.382 1.054-.382 1.438.033.191.224.255.511.255.83 0 .288-.128.608-.32.8-.191.223-.479.35-.734.287Zm-3.068-.032-.191-1.981 1.086-.096.032.224-.83.096.063.67.703-.063.032.191-.703.064.096.895h-.288Zm-3.802 1.118-.639-2.045.288-.095 1.501 1.278-.479-1.566.256-.064.639 2.045-.288.096-1.502-1.278.48 1.565-.256.064Zm-1.949.543a.544.544 0 0 0 .32-.415.9.9 0 0 0-.128-.639 1.195 1.195 0 0 0-.415-.48.49.49 0 0 0-.512 0 .544.544 0 0 0-.32.416c-.031.224.033.416.129.607.095.192.223.352.415.48.16.095.351.127.511.031Zm.096.192c-.224.128-.48.128-.735.032a1.254 1.254 0 0 1-.575-.575.981.981 0 0 1-.096-.799.944.944 0 0 1 1.182-.607h.032c.256.096.448.32.575.575.128.256.192.543.096.799a.806.806 0 0 1-.479.575ZM23.852 40.067a15.98 15.98 0 0 1-4.569-.671c-.99-.288-1.917-.703-2.843-1.182-3.706-1.981-6.39-5.272-7.604-9.298-.288-.99-.512-1.981-.608-3.004a15.564 15.564 0 0 1 4.506-12.62c.383-.384.766-.735 1.15-1.023A15.654 15.654 0 0 1 28.39 9.394c.99.287 1.949.703 2.843 1.182.895.48 1.757 1.054 2.556 1.725a13.972 13.972 0 0 1 2.173 2.173c2.268 2.748 3.515 6.23 3.547 9.809v.16a15.98 15.98 0 0 1-.671 4.569c-.288.99-.703 1.949-1.183 2.843a14.959 14.959 0 0 1-1.725 2.556 13.976 13.976 0 0 1-2.173 2.173 19.902 19.902 0 0 1-2.556 1.725c-.894.48-1.853.895-2.843 1.183-1.438.351-2.972.575-4.506.575Zm0-31.089a15.424 15.424 0 0 0-9.745 3.483c-.383.288-.734.639-1.118 1.022-3.29 3.26-4.888 7.796-4.441 12.398.096.99.288 1.98.575 2.97 1.182 3.93 3.834 7.158 7.477 9.107.894.48 1.82.863 2.78 1.15 2.907.895 6.006.895 8.946 0a15.01 15.01 0 0 0 2.78-1.15 14.71 14.71 0 0 0 2.492-1.661c.766-.64 1.501-1.342 2.14-2.141a13.25 13.25 0 0 0 1.662-2.524c.48-.895.863-1.822 1.182-2.78a16.42 16.42 0 0 0 .671-4.314v-.16c0-3.546-1.214-7.029-3.483-9.744-.639-.767-1.342-1.502-2.14-2.141a14.103 14.103 0 0 0-2.493-1.662 15.005 15.005 0 0 0-2.78-1.15 14.721 14.721 0 0 0-4.505-.703Z"/><path d="M30.434 23.772a.874.874 0 0 0-.926-.671c-.447 0-.83.255-.959.67h1.886Zm6.518.415a.76.76 0 0 0-.095-.383c-.096-.256-.32-.448-.575-.575a1.146 1.146 0 0 0-.8 0 1.147 1.147 0 0 0-.319.223c-.096.096-.16.224-.223.352a.55.55 0 0 0-.064.383 1.04 1.04 0 0 0 2.077 0Zm-20.16-.032c0-.575-.448-1.054-1.023-1.054s-1.055.447-1.055 1.022.448 1.054 1.023 1.054 1.022-.447 1.054-1.022Zm16.007-1.438v-.447h-.99v3.77h.99v-2.045c0-.607.287-.926.83-.926h.096l.192-.895a1.212 1.212 0 0 0-1.118.543Zm-9.81 0v-.447H22v3.77h.959v-2.045c0-.607.288-.926.83-.926h.096l.192-.895c-.447-.032-.863.16-1.086.543ZM9.859 24.155c0-1.086.895-1.98 1.981-1.949h.032c.67 0 1.31.32 1.693.895l-.83.479a1.106 1.106 0 0 0-.863-.447 1.033 1.033 0 0 0-1.086.958 1.033 1.033 0 0 0 .958 1.086h.128c.351 0 .703-.191.894-.479l.831.48c-.607.926-1.853 1.214-2.78.607-.607-.32-.926-.959-.958-1.63Zm14.25 1.086.863-.447c.16.32.48.511.83.511.384 0 .512-.128.512-.287 0-.607-2.045-.256-2.045-1.63 0-.767.67-1.182 1.502-1.182a1.684 1.684 0 0 1 1.501.799l-.862.447c-.128-.255-.384-.383-.671-.383-.288 0-.448.096-.448.287 0 .575 2.045.224 2.045 1.63 0 .735-.607 1.182-1.565 1.182-.8-.032-1.374-.287-1.662-.927Zm-10.384-1.086c-.032-1.118.863-2.013 1.95-2.045 1.117-.032 2.012.863 2.044 1.95.032 1.117-.863 2.012-1.95 2.044h-.031c-1.086.032-1.981-.83-2.013-1.949 0 .032 0 0 0 0Zm20.161.032c-.032-1.054.799-1.917 1.821-1.98.448-.065.895.159 1.183.542l.095-.447h.895v3.77h-.895l-.127-.383a1.39 1.39 0 0 1-1.15.447 1.933 1.933 0 0 1-1.822-1.949Zm-6.294-.032c0-1.054.862-1.917 1.917-1.917 1.054 0 1.917.863 1.917 1.917 0 .096 0 .224-.032.32h-2.876c.128.479.576.798 1.055.734.351 0 .703-.127.926-.415l.671.543c-.383.512-.958.8-1.597.767a1.959 1.959 0 0 1-2.013-1.885s0-.032.032-.064Zm-9.522.447V22.27h.959v2.205c-.032.383.224.734.607.766h.128c.511 0 .83-.32.83-.926V22.27h.991v3.77h-.959v-.447a1.282 1.282 0 0 1-1.118.543c-.894 0-1.438-.639-1.438-1.534ZM28.741 43.39l-.48-1.694-.67.192-.064-.192 1.598-.447.063.192-.67.191.479 1.694-.256.064Zm-3.419-.48h.096c.352-.032.511-.191.48-.479-.032-.192-.192-.287-.48-.255l-.16.032.064.702Zm-.16 1.055-.223-1.95.575-.063c.16-.032.32 0 .447.064a.441.441 0 0 1 .192.351.603.603 0 0 1-.32.607l.735.863-.351.032-.64-.767-.255.032.096.83h-.255Zm-3.035-.032.096-1.95 1.086.065v.223l-.83-.032-.032.64.703.031v.192l-.671-.032-.032.703.862.032v.192l-1.15-.064h-.032Zm-2.268-.32a.884.884 0 0 1-.64-.415 1.168 1.168 0 0 1-.095-.799c.032-.287.192-.511.415-.703a.934.934 0 0 1 .767-.128c.192.032.415.128.575.224l-.064.256c-.192-.128-.383-.192-.575-.256-.192-.064-.383 0-.543.128a.992.992 0 0 0-.288.575.812.812 0 0 0 .064.607c.096.16.256.288.448.32.191.032.415.032.607-.032l-.064.223a1.92 1.92 0 0 1-.607 0Zm-5.272-1.949.862-1.757.99.48-.095.191-.735-.352-.287.576.607.32-.096.19-.607-.287-.32.64.799.383-.096.191-1.022-.575Zm-2.013-1.214a3.836 3.836 0 0 1-.384-.351l.16-.224c.096.16.224.32.352.447.063.064.16.096.255.064.096 0 .16-.064.224-.128.032-.064.064-.127.064-.191a.515.515 0 0 0-.096-.288l-.064-.128c-.064-.127-.128-.287-.128-.415 0-.096.032-.224.096-.287.064-.128.192-.192.351-.224.16-.032.32.032.416.128.128.096.255.191.351.32l-.16.223a1.675 1.675 0 0 0-.319-.352c-.064-.064-.16-.064-.223-.064-.064 0-.16.032-.192.096s-.064.128-.032.192l.096.288.064.16c.064.127.127.287.127.415a.527.527 0 0 1-.479.543c-.16-.096-.351-.128-.48-.224Zm-1.79-2.907.064.063c.256.256.48.256.671.064.128-.16.096-.32-.095-.51l-.128-.129c0-.032-.511.512-.511.512Zm-.894.543 1.342-1.438.447.415a.593.593 0 0 1 .224.384c0 .128-.032.287-.128.383a.538.538 0 0 1-.67.128l-.16 1.118-.256-.223.16-.99-.192-.193-.575.608-.192-.192Zm-.511-3.739.16.224-.991.735a.781.781 0 0 0-.288.352c-.032.127.032.255.096.351.064.096.192.16.288.192a.992.992 0 0 0 .415-.192l.99-.767.16.192-.99.767a.919.919 0 0 1-.575.223c-.192-.032-.352-.16-.48-.32a.868.868 0 0 1-.191-.542c.064-.192.192-.384.351-.512l1.055-.703Zm-2.78-1.118c.064.16.224.288.415.32a1.1 1.1 0 0 0 .64-.128c.191-.096.35-.224.447-.415a.706.706 0 0 0 0-.512.544.544 0 0 0-.416-.32c-.415-.031-.83.193-1.086.544a.705.705 0 0 0 0 .511Zm-.192.096a.905.905 0 0 1-.064-.703c.096-.255.288-.447.544-.575.223-.128.51-.192.766-.128.48.16.767.671.64 1.15v.032a1.061 1.061 0 0 1-.544.575c-.223.128-.511.192-.799.128a1.128 1.128 0 0 1-.543-.479Zm-1.15-2.908a.92.92 0 0 1 .032-.766c.128-.224.383-.416.639-.48.256-.095.543-.095.799 0 .223.128.415.352.479.608.064.191.096.415.096.607l-.256.064c0-.224 0-.416-.064-.64a.603.603 0 0 0-.351-.383c-.224-.064-.447-.064-.64.032a1.135 1.135 0 0 0-.51.352c-.096.16-.128.383-.064.543.064.191.191.383.351.51l-.223.065c-.128-.128-.256-.32-.288-.511Z"/><path fill-rule="evenodd" clip-rule="evenodd" d="m30.69 40.674-.256.096.767 1.82.256-.127-.767-1.79Z"/><path d="m33.118 41.696-.99-1.693.958-.543.096.16-.703.415.352.575.575-.352.128.192-.607.352.447.766-.256.128ZM34.501 38.457l-.228.175 1.184 1.548.228-.175-1.184-1.548ZM42.256 31.12l-1.885-.607.32-1.054.191.064-.255.767.607.191.224-.639.191.064-.191.64.67.223.256-.83.192.063-.32 1.118Zm-1.022 2.397-1.566-.767-.32.639-.19-.096.734-1.502.192.096-.32.64 1.566.766-.096.224Zm-1.214 1.98-.575-.127-.48.67.32.48-.16.224-1.15-1.79.16-.223 2.044.511-.16.256Zm-.767-.223-.895-.224.512.767.383-.543Zm-1.502 3.004a.915.915 0 0 1-.703.319 1.066 1.066 0 0 1-.703-.352c-.191-.191-.351-.447-.351-.702 0-.256.128-.512.32-.703.16-.128.319-.256.51-.384l.192.192c-.191.096-.383.192-.543.351-.128.128-.223.32-.191.512.032.223.16.415.319.543.128.16.352.255.543.287a.726.726 0 0 0 .511-.191c.128-.16.256-.352.288-.544l.16.16a1.135 1.135 0 0 1-.352.512Z"/></g><defs><clipPath id="a"><path fill="#fff" d="M.369.863h47v47h-47z"/></clipPath></defs></svg>