<svg width="76" height="106" viewBox="0 0 76 106" fill="none" xmlns="http://www.w3.org/2000/svg"><mask id="a" style="mask-type:alpha" maskUnits="userSpaceOnUse" x="10" y="15" width="56" height="76"><path d="M58.132 32.129a1.728 1.728 0 0 0-1.163-1.364 1.7 1.7 0 0 0-1.731.416l-8.81 9-6.978-13.393a1.659 1.659 0 0 0-1.49-.936 1.66 1.66 0 0 0-1.49.936l-3.787 7.322-9.575-18.002c-.766-1.464-2.937-1.077-3.192.56l-9.192 59.69 24.64 13.996a5.122 5.122 0 0 0 4.98 0l24.852-13.996-7.064-44.23Z" fill="#fff"/></mask><g mask="url(#a)"><path d="M58.132 32.129a1.728 1.728 0 0 0-1.163-1.364 1.7 1.7 0 0 0-1.731.416l-8.81 9-6.978-13.393a1.659 1.659 0 0 0-1.49-.936 1.66 1.66 0 0 0-1.49.936l-3.787 7.322-9.575-18.002c-.766-1.464-2.937-1.077-3.192.56l-9.192 59.69 24.64 13.996a5.122 5.122 0 0 0 4.98 0l24.852-13.996-7.064-44.23Z" fill="url(#b)"/><path d="m10.724 76.358 9.235-59.69c.255-1.637 2.425-2.024 3.191-.56l9.533 18.002 3.788-7.322a1.7 1.7 0 0 1 1.51-.928 1.7 1.7 0 0 1 1.511.928l25.704 49.57H10.724Z" fill="#FFA000"/><path d="M42.556 53.102 32.641 34.11 10.724 76.358l31.832-23.256Z" fill="#F57C00"/><path d="m65.196 76.358-7.064-44.23a1.728 1.728 0 0 0-1.163-1.363 1.699 1.699 0 0 0-1.731.416L10.724 76.358l24.64 13.996a5.122 5.122 0 0 0 4.98 0l24.852-13.996Z" fill="#FFCA28"/><path d="M58.132 32.129a1.728 1.728 0 0 0-1.163-1.364 1.7 1.7 0 0 0-1.731.416l-8.81 9-6.979-13.393a1.66 1.66 0 0 0-1.49-.936 1.66 1.66 0 0 0-1.489.936l-3.787 7.322-9.575-18.002c-.766-1.464-2.937-1.077-3.192.56l-9.192 59.69h-.043l.043.043.255.129 35.407-35.917 8.852-8.958a1.7 1.7 0 0 1 1.731-.416c.609.2 1.057.725 1.163 1.363l6.979 43.799.085-.043-7.064-44.23ZM10.809 76.272l9.15-59.174c.255-1.636 2.425-2.024 3.191-.56l9.533 18.002 3.787-7.321a1.7 1.7 0 0 1 1.511-.929 1.7 1.7 0 0 1 1.51.929l6.81 13.092-35.492 35.96Z" fill="#fff" fill-opacity=".2"/><path opacity=".2" d="M40.343 89.923a5.118 5.118 0 0 1-4.979 0L10.766 75.97l-.042.388 24.64 13.996a5.118 5.118 0 0 0 4.98 0l24.852-13.996-.042-.388-24.81 13.953Z" fill="#A52714"/><path d="M58.132 32.129a1.728 1.728 0 0 0-1.163-1.364 1.7 1.7 0 0 0-1.731.416l-8.81 9-6.978-13.393a1.659 1.659 0 0 0-1.49-.936 1.66 1.66 0 0 0-1.49.936l-3.787 7.322-9.575-18.002c-.766-1.464-2.937-1.077-3.192.56l-9.192 59.69 24.64 13.996a5.122 5.122 0 0 0 4.98 0l24.852-13.996-7.064-44.23Z" fill="url(#c)"/></g><defs><linearGradient id="b" x1="8.827" y1="28.105" x2="77.065" y2="63.765" gradientUnits="userSpaceOnUse"><stop stop-color="#fff" stop-opacity=".1"/><stop offset="1" stop-color="#fff" stop-opacity="0"/></linearGradient><linearGradient id="c" x1="8.827" y1="28.105" x2="77.065" y2="63.765" gradientUnits="userSpaceOnUse"><stop stop-color="#fff" stop-opacity=".1"/><stop offset="1" stop-color="#fff" stop-opacity="0"/></linearGradient></defs></svg>