<svg width="76" height="106" viewBox="0 0 76 106" fill="none" xmlns="http://www.w3.org/2000/svg">
    <g clip-path="url(#clip0_249_350)">
        <mask id="mask0_249_350" style="mask-type:alpha" maskUnits="userSpaceOnUse" x="0" y="0" width="76" height="106">
            <path d="M65.7241 24.2358C65.5786 23.3572 64.9616 22.6338 64.124 22.3595C63.2864 22.0853 62.3677 22.3059 61.7411 22.9318L49.6164 35.3203L40.0103 16.8857C39.6251 16.0961 38.8304 15.5963 37.9603 15.5963C37.0901 15.5963 36.2954 16.0961 35.9102 16.8857L30.6971 26.9625L17.5181 2.18548C16.4638 0.170129 13.4765 0.703605 13.1251 2.95606L0.473175 85.1114L34.3873 104.376C36.5214 105.561 39.1062 105.561 41.2404 104.376L75.4474 85.1114L65.7241 24.2358Z"
                  fill="white"/>
        </mask>
        <g mask="url(#mask0_249_350)">
            <path d="M65.7241 24.2358C65.5786 23.3572 64.9616 22.6338 64.124 22.3595C63.2864 22.0853 62.3677 22.3059 61.7411 22.9318L49.6164 35.3203L40.0103 16.8857C39.6251 16.0961 38.8304 15.5963 37.9603 15.5963C37.0901 15.5963 36.2954 16.0961 35.9102 16.8857L30.6971 26.9625L17.5181 2.18548C16.4638 0.170129 13.4765 0.703605 13.1251 2.95606L0.473175 85.1114L34.3873 104.376C36.5214 105.561 39.1062 105.561 41.2404 104.376L75.4474 85.1114L65.7241 24.2358Z"
                  fill="url(#paint0_linear_249_350)"/>
            <path d="M0.473175 85.1114L13.1836 2.95606C13.5351 0.703605 16.5223 0.170129 17.5767 2.18548L30.6971 26.9625L35.9102 16.8857C36.3132 16.1002 37.115 15.6073 37.9896 15.6073C38.8641 15.6073 39.6659 16.1002 40.0689 16.8857L75.4474 85.1114H0.473175Z"
                  fill="#FFA000"/>
            <path d="M44.2862 53.1029L30.6386 26.9625L0.473175 85.1115L44.2862 53.1029Z" fill="#F57C00"/>
            <path d="M75.4474 85.1114L65.7241 24.2358C65.5786 23.3572 64.9616 22.6337 64.124 22.3595C63.2864 22.0853 62.3677 22.3059 61.7411 22.9318L0.473175 85.1114L34.3873 104.376C36.5214 105.561 39.1062 105.561 41.2404 104.376L75.4474 85.1114Z"
                  fill="#FFCA28"/>
            <path d="M65.7242 24.2358C65.5786 23.3572 64.9617 22.6338 64.1241 22.3595C63.2865 22.0853 62.3677 22.3059 61.7412 22.9318L49.6164 35.3203L40.0104 16.8857C39.6251 16.0961 38.8304 15.5963 37.9603 15.5963C37.0901 15.5963 36.2954 16.0961 35.9102 16.8857L30.6972 26.9625L17.5181 2.18548C16.4638 0.170129 13.4765 0.703605 13.1251 2.95606L0.473185 85.1114H0.414612L0.473185 85.1707L0.824627 85.3485L49.5578 35.9131L61.7412 23.5838C62.3677 22.958 63.2865 22.7373 64.1241 23.0115C64.9617 23.2858 65.5786 24.0092 65.7242 24.8879L75.3302 85.1707L75.4474 85.1114L65.7242 24.2358ZM0.590333 84.9929L13.1837 3.54881C13.5351 1.29636 16.5223 0.76288 17.5767 2.77824L30.6972 27.5553L35.9102 17.4785C36.3132 16.693 37.115 16.2001 37.9896 16.2001C38.8641 16.2001 39.6659 16.693 40.0689 17.4785L49.4407 35.4981L0.590333 84.9929Z"
                  fill="white" fill-opacity="0.2"/>
            <path opacity="0.2"
                  d="M41.2404 103.783C39.1062 104.969 36.5214 104.969 34.3873 103.783L0.531748 84.578L0.473175 85.1115L34.3873 104.376C36.5214 105.562 39.1062 105.562 41.2404 104.376L75.4474 85.1115L75.3888 84.578L41.2404 103.783Z"
                  fill="#A52714"/>
            <path d="M65.7241 24.2358C65.5786 23.3572 64.9616 22.6338 64.1241 22.3595C63.2865 22.0853 62.3677 22.3059 61.7411 22.9318L49.6164 35.3203L40.0103 16.8857C39.6251 16.0961 38.8304 15.5963 37.9603 15.5963C37.0901 15.5963 36.2954 16.0961 35.9102 16.8857L30.6971 26.9625L17.5181 2.18548C16.4638 0.170129 13.4765 0.703605 13.1251 2.95606L0.473175 85.1114L34.3873 104.376C36.5214 105.561 39.1062 105.561 41.2404 104.376L75.4474 85.1114L65.7241 24.2358Z"
                  fill="url(#paint1_linear_249_350)"/>
        </g>
    </g>
    <defs>
        <linearGradient id="paint0_linear_249_350" x1="-2.13725" y1="18.6976" x2="91.7834" y2="67.7796"
                        gradientUnits="userSpaceOnUse">
            <stop stop-color="white" stop-opacity="0.1"/>
            <stop offset="1" stop-color="white" stop-opacity="0"/>
        </linearGradient>
        <linearGradient id="paint1_linear_249_350" x1="-2.13725" y1="18.6976" x2="91.7834" y2="67.7796"
                        gradientUnits="userSpaceOnUse">
            <stop stop-color="white" stop-opacity="0.1"/>
            <stop offset="1" stop-color="white" stop-opacity="0"/>
        </linearGradient>
        <clipPath id="clip0_249_350">
            <rect width="76" height="105" fill="white" transform="translate(0 0.869873)"/>
        </clipPath>
    </defs>
</svg>
