<svg width="73" height="89" viewBox="0 0 73 89" fill="none" xmlns="http://www.w3.org/2000/svg"><path d="M65 42.017H43.177l-19.09 18.97 10.91 10.84L65 42.016ZM18.63 55.566 7.717 44.724l35.46-35.23H65L18.63 55.566Z" fill="#54C5F8"/><path d="m34.996 71.826 8.181 8.128H65L45.901 60.988 34.996 71.826Z" fill="#01579B"/><path d="M34.996 71.826 51.18 66.26 45.9 60.988 34.996 71.826Z" fill="url(#a)"/><path d="M34.994 50.147 24.085 60.985l10.909 10.838 10.909-10.838-10.909-10.838Z" fill="#29B6F6"/><path d="M65 42.017 45.91 60.984 65 79.954H43.177l-8.18-8.128-10.914-10.842 19.094-18.967H65ZM43.177 9.494l-35.46 35.23L18.63 55.567 65 9.493H43.177Z" fill="url(#b)"/><path d="M65 42.017 45.91 60.984 65 79.954H43.177l-8.18-8.128-10.914-10.842 19.094-18.967H65ZM43.177 9.494l-35.46 35.23L18.63 55.567 65 9.493H43.177Z" fill="url(#c)"/><defs><radialGradient id="b" cx="0" cy="0" r="1" gradientUnits="userSpaceOnUse" gradientTransform="matrix(86.7671 0 0 86.2033 9.33 14.298)"><stop stop-color="#fff" stop-opacity=".1"/><stop offset="1" stop-color="#fff" stop-opacity="0"/></radialGradient><radialGradient id="c" cx="0" cy="0" r="1" gradientUnits="userSpaceOnUse" gradientTransform="matrix(86.7671 0 0 86.2033 9.33 14.298)"><stop stop-color="#fff" stop-opacity=".1"/><stop offset="1" stop-color="#fff" stop-opacity="0"/></radialGradient><linearGradient id="a" x1="38.179" y1="73.919" x2="46.252" y2="65.793" gradientUnits="userSpaceOnUse"><stop stop-color="#1A237E" stop-opacity=".4"/><stop offset="1" stop-color="#1A237E" stop-opacity="0"/></linearGradient></defs></svg>