<svg width="108" height="109" viewBox="0 0 108 109" fill="none" xmlns="http://www.w3.org/2000/svg">
    <g clip-path="url(#clip0_221_92)">
        <path d="M108 0.388428H0V108.388H108V0.388428Z" fill="#F0DB4F"/>
        <path d="M71.7143 83.7756C73.6769 86.9799 76.2302 89.3353 80.746 89.3353C84.5396 89.3353 86.963 87.4393 86.963 84.8195C86.963 81.68 84.4731 80.5681 80.2975 78.7417L78.0087 77.7596C71.4019 74.945 67.0129 71.4189 67.0129 63.9647C67.0129 57.0982 72.2448 51.871 80.4212 51.871C86.2423 51.871 90.4272 53.8969 93.4429 59.2014L86.3134 63.7791C84.7437 60.9645 83.0503 59.8556 80.4212 59.8556C77.7396 59.8556 76.0399 61.5568 76.0399 63.7791C76.0399 66.5257 77.7411 67.6377 81.6693 69.3388L83.9581 70.3193C91.7371 73.6552 96.1292 77.056 96.1292 84.7019C96.1292 92.9448 89.6539 97.4607 80.9579 97.4607C72.4551 97.4607 66.9619 93.4088 64.2741 88.0981L71.7143 83.7756ZM39.3721 84.5689C40.8103 87.1207 42.1187 89.2781 45.2643 89.2781C48.2723 89.2781 50.1699 88.1012 50.1699 83.525V52.3937H59.3252V83.6487C59.3252 93.1289 53.767 97.4437 45.654 97.4437C38.3235 97.4437 34.0784 93.6501 31.9194 89.0809L39.3721 84.5689Z"
              fill="#323330"/>
    </g>
    <defs>
        <clipPath id="clip0_221_92">
            <rect width="108" height="108" fill="white" transform="translate(0 0.388428)"/>
        </clipPath>
    </defs>
</svg>
