<svg width="712" height="462" viewBox="0 0 712 462" fill="none" xmlns="http://www.w3.org/2000/svg"><path d="M43.986 412.637h.274a97.845 97.845 0 0 0 101.409 1.554c35.753-21.626 52.899-63.277 76.536-97.705 22.861 28.21 35.617 64.604 63.552 87.692a100.584 100.584 0 0 0 123.72.503c27.799-22.86 40.235-61.494 33.377-96.333-4.253-21.58-17.374-38.543-29.17-56.602l-41.926-64.284-56.603-86.869c-11.384-17.466-23.226-35.388-40.6-46.91a102.732 102.732 0 0 0-54.087-14.905 85.777 85.777 0 0 0-38.086 6.538c-16.505 7.636-28.529 22.266-39.548 36.577C105.206 131.27 72.561 184.17 38.774 236.2 21.903 262.673 3.614 290.151.505 321.195a99.078 99.078 0 0 0 43.48 91.442Z" fill="#418A41"/><path d="M530.997 82.044c-29.721-44.85-90.164-57.122-135.004-27.408-44.84 29.713-57.097 90.159-27.377 135.009l126.662 191.146c29.721 44.85 90.164 57.121 135.004 27.408 44.84-29.713 57.097-90.159 27.377-135.01L530.997 82.044Z" fill="#ED7F23"/><path d="M530.711 81.655c-29.747-45.097-90.42-57.54-135.517-27.793-45.097 29.747-57.54 90.42-27.793 135.517 29.747 45.097 90.42 57.54 135.517 27.793 45.097-29.747 57.54-90.42 27.793-135.517Z" fill="#FDCD0F"/><path d="m222.392 315.982-.412.732c2.424 3.246 4.573 6.447 6.904 9.51l-6.492-10.242ZM228.881 326.222l22.86 35.571a416.637 416.637 0 0 0-22.86-35.571ZM221.976 316.622c-19.248-25.878-46.407-56.282-76.811-72.833l-.731-.32a87.832 87.832 0 0 0-46.361-11.659 97.529 97.529 0 0 0-40.692 8.916 85.958 85.958 0 0 0-50.704 53.767 94.048 94.048 0 0 0-6.675 35.388c1.006 58.157 41.514 98.026 98.07 98.026 40.829 0 68.856-22.495 91.991-59.849l30.587-48.967 1.326-2.469Z" fill="#3E519D"/></svg>