<svg width="178" height="106" viewBox="0 0 178 106" fill="none" xmlns="http://www.w3.org/2000/svg"><g clip-path="url(#a)" fill="#fff"><path d="M41.899 28.022H75.21v2.61H44.952V50.27h28.455v2.61H44.952v21.562h30.606v2.61h-33.66V28.021Zm36.297 0h3.539L97.42 49.584l16.032-21.562L135.257.632 99.432 51.85l18.461 25.202h-3.678L97.42 54.116 80.555 77.052h-3.609l18.6-25.202-17.35-23.828Zm41.016 2.61v-2.61h37.963v2.61h-17.49v46.42h-3.053v-46.42h-17.42ZM.223 28.022H4.04l52.635 77.625-21.751-28.595L3.415 31.73l-.138 45.322H.223v-49.03ZM156.867 73.655c.631 0 1.092-.476 1.092-1.092 0-.616-.461-1.092-1.092-1.092-.624 0-1.092.476-1.092 1.092 0 .616.468 1.092 1.092 1.092Zm3-2.873c0 1.818 1.33 3.005 3.268 3.005 2.065 0 3.313-1.224 3.313-3.35v-7.483h-1.664v7.476c0 1.18-.601 1.81-1.663 1.81-.951 0-1.597-.586-1.62-1.458h-1.634Zm8.757-.095c.119 1.89 1.716 3.1 4.092 3.1 2.541 0 4.13-1.268 4.13-3.29 0-1.591-.906-2.47-3.105-2.977l-1.18-.285c-1.397-.323-1.961-.755-1.961-1.51 0-.953.876-1.576 2.191-1.576 1.248 0 2.109.608 2.265 1.583h1.619c-.096-1.78-1.686-3.034-3.862-3.034-2.34 0-3.899 1.253-3.899 3.137 0 1.553.884 2.477 2.822 2.924l1.382.33c1.418.33 2.042.814 2.042 1.62 0 .938-.98 1.62-2.317 1.62-1.434 0-2.429-.638-2.57-1.642h-1.649Z"/></g><defs><clipPath id="a"><path fill="#fff" d="M.05.39h177v105H.05z"/></clipPath></defs></svg>