<svg width="79" height="90" viewBox="0 0 79 90" fill="none" xmlns="http://www.w3.org/2000/svg">
    <g clip-path="url(#clip0_249_409)">
        <path d="M39.4425 89.8699C38.2558 89.8705 37.09 89.5547 36.0622 88.9545L25.3007 82.5118C23.6947 81.6019 24.4791 81.2796 25.0088 81.0927C26.7166 80.5543 28.3512 79.8019 29.8745 78.8531C30.0021 78.7938 30.1426 78.7684 30.2826 78.7793C30.4226 78.7901 30.5576 78.8369 30.6747 78.9152L38.942 83.882C39.0957 83.9648 39.2671 84.0081 39.4412 84.0081C39.6153 84.0081 39.7868 83.9648 39.9404 83.882L72.1719 65.0573C72.3223 64.9657 72.4467 64.8363 72.533 64.6816C72.6193 64.5269 72.6646 64.3522 72.6644 64.1746V26.536C72.6642 26.3553 72.6181 26.1776 72.5305 26.0201C72.4428 25.8627 72.3166 25.7307 72.1639 25.6369L39.9457 6.82857C39.7942 6.74199 39.6232 6.6965 39.4492 6.6965C39.2752 6.6965 39.1042 6.74199 38.9527 6.82857L6.74271 25.6425C6.58854 25.7341 6.46043 25.8645 6.37087 26.0211C6.2813 26.1777 6.23332 26.3551 6.2316 26.536V64.1746C6.23196 64.3526 6.27927 64.5272 6.36864 64.6805C6.45801 64.8338 6.5862 64.9601 6.73997 65.0465L15.5694 70.2085C20.3599 72.6323 23.2932 69.7778 23.2932 66.9098V29.7479C23.2931 29.6238 23.3173 29.5009 23.3644 29.3863C23.4115 29.2717 23.4807 29.1677 23.5678 29.0803C23.6549 28.9929 23.7583 28.9239 23.8719 28.8772C23.9856 28.8305 24.1073 28.8071 24.2299 28.8083H28.317C28.4393 28.8078 28.5606 28.8318 28.6737 28.8787C28.7869 28.9257 28.8898 28.9948 28.9766 29.0821C29.0634 29.1693 29.1323 29.2731 29.1793 29.3873C29.2264 29.5016 29.2508 29.6241 29.251 29.7479V66.9098C29.251 73.3796 25.7691 77.0899 19.7071 77.0899C17.8443 77.0899 16.3776 77.0899 12.2829 75.048L3.83081 70.1245C2.8026 69.5182 1.94941 68.6498 1.35631 67.6058C0.763201 66.5618 0.450908 65.3788 0.450562 64.1746V26.536C0.4503 25.3324 0.76239 24.1499 1.35561 23.1067C1.94882 22.0635 2.80236 21.1962 3.83084 20.5916L36.0622 1.74531C37.1009 1.17091 38.2655 0.869873 39.4492 0.869873C40.6328 0.869873 41.7975 1.17091 42.8362 1.74531L75.0651 20.5916C76.0938 21.1965 76.9477 22.0636 77.5417 23.1067C78.1358 24.1497 78.4491 25.3321 78.4506 26.536V64.1746C78.4482 65.379 78.1345 66.5618 77.5406 67.6056C76.9467 68.6493 76.0933 69.5177 75.0651 70.1245L42.8362 88.9545C41.8044 89.5568 40.6337 89.8726 39.4425 89.8699Z"
              fill="#689F63"/>
        <path d="M49.3985 63.9389C35.2943 63.9389 32.3394 57.3878 32.3394 51.893C32.3391 51.7693 32.363 51.6467 32.4097 51.5323C32.4565 51.418 32.5251 51.3141 32.6117 51.2268C32.6983 51.1394 32.8011 51.0702 32.9143 51.0233C33.0274 50.9763 33.1486 50.9525 33.2709 50.9532H37.438C37.6613 50.9523 37.8775 51.0324 38.0474 51.179C38.2173 51.3256 38.3296 51.5289 38.3641 51.7521C38.9931 56.0445 40.869 58.2112 49.3986 58.2112C56.1887 58.2112 59.0792 56.6568 59.0792 53.0114C59.0792 50.9099 58.26 49.35 47.7074 48.3045C38.8886 47.4218 33.434 45.45 33.434 38.3113C33.434 31.7305 38.9152 27.8062 48.1061 27.8062C58.4313 27.8062 63.5406 31.4324 64.1882 39.2131C64.1996 39.3435 64.1841 39.4748 64.1426 39.5988C64.1011 39.7228 64.0346 39.8366 63.9473 39.9332C63.8599 40.0297 63.7537 40.1068 63.6353 40.1595C63.5169 40.2123 63.389 40.2395 63.2597 40.2395H59.0764C58.8653 40.2391 58.6607 40.1659 58.4962 40.032C58.3318 39.8981 58.2173 39.7115 58.1717 39.5029C57.1681 34.9857 54.7274 33.5422 48.1061 33.5422C40.6925 33.5422 39.8305 36.1557 39.8305 38.1136C39.8305 40.486 40.8476 41.1765 50.8574 42.5171C60.7624 43.8416 65.4675 45.7182 65.4675 52.7624C65.4675 59.8687 59.6117 63.9389 49.3985 63.9389Z"
              fill="#689F63"/>
    </g>
    <defs>
        <clipPath id="clip0_249_409">
            <rect width="78" height="89" fill="white" transform="translate(0.450562 0.869873)"/>
        </clipPath>
    </defs>
</svg>
