<svg width="79" height="90" viewBox="0 0 79 90" fill="none" xmlns="http://www.w3.org/2000/svg"><path d="M39.444 85a5.962 5.962 0 0 1-3.01-.815l-9.585-5.738c-1.43-.81-.731-1.097-.26-1.264 1.521-.48 2.977-1.15 4.334-1.994a.729.729 0 0 1 .712.055l7.363 4.423a.937.937 0 0 0 .889 0l28.704-16.764a.912.912 0 0 0 .439-.786v-33.52a.948.948 0 0 0-.446-.8l-28.692-16.75a.89.89 0 0 0-.885 0L10.322 27.8a.928.928 0 0 0-.455.796v33.52a.898.898 0 0 0 .453.776l7.863 4.597c4.266 2.159 6.879-.383 6.879-2.938V31.457a.844.844 0 0 1 .244-.594.825.825 0 0 1 .59-.242h3.64a.82.82 0 0 1 .587.244.836.836 0 0 1 .244.593v33.094c0 5.762-3.1 9.066-8.5 9.066-1.658 0-2.964 0-6.61-1.818l-7.528-4.385a6.1 6.1 0 0 1-2.204-2.243 6.19 6.19 0 0 1-.806-3.055v-33.52c0-1.072.277-2.125.806-3.054a6.085 6.085 0 0 1 2.204-2.24L36.433 6.52a6.231 6.231 0 0 1 6.033 0l28.702 16.784a6.095 6.095 0 0 1 2.205 2.24c.53.929.808 1.982.81 3.054v33.52a6.205 6.205 0 0 1-.81 3.055 6.115 6.115 0 0 1-2.205 2.243l-28.702 16.77a5.967 5.967 0 0 1-3.022.815Z" fill="#689F63"/><path d="M48.31 61.907c-12.56 0-15.192-5.834-15.192-10.728a.846.846 0 0 1 .242-.593.822.822 0 0 1 .587-.244h3.711c.2 0 .392.07.543.201.152.13.252.312.282.51.56 3.823 2.231 5.753 9.827 5.753 6.047 0 8.621-1.384 8.621-4.63 0-1.872-.73-3.262-10.127-4.193-7.854-.786-12.711-2.542-12.711-8.9 0-5.86 4.881-9.355 13.066-9.355 9.195 0 13.746 3.23 14.322 10.159a.848.848 0 0 1-.492.843.821.821 0 0 1-.335.07H56.93a.82.82 0 0 1-.517-.184.838.838 0 0 1-.289-.471c-.893-4.023-3.067-5.309-8.964-5.309-6.602 0-7.37 2.328-7.37 4.072 0 2.112.906 2.727 9.82 3.921 8.821 1.18 13.012 2.851 13.012 9.124 0 6.329-5.215 9.954-14.31 9.954Z" fill="#689F63"/></svg>