<svg width="88" height="89" viewBox="0 0 88 89" fill="none" xmlns="http://www.w3.org/2000/svg">
    <g clip-path="url(#clip0_249_413)">
        <path d="M43.3244 1.24486C39.7639 1.26144 36.3637 1.56588 33.3718 2.09663C24.5583 3.65766 22.9581 6.92502 22.9581 12.9506V20.9086H43.7856V23.5612H22.9581H15.1416C9.08858 23.5612 3.78833 27.2087 2.13049 34.1475C0.21818 42.101 0.133359 47.0641 2.13049 55.3687C3.61098 61.5504 7.14662 65.955 13.1997 65.955H20.3607V56.4152C20.3607 49.5233 26.3086 43.444 33.3718 43.444H54.1751C59.966 43.444 64.5889 38.6638 64.5889 32.8334V12.9506C64.5889 7.29187 59.8272 3.04105 54.1751 2.09663C50.5973 1.49953 46.8849 1.22827 43.3244 1.24486ZM32.061 7.6453C34.2124 7.6453 35.9692 9.43539 35.9692 11.6364C35.9692 13.8297 34.2124 15.6033 32.061 15.6033C29.902 15.6033 28.1528 13.8297 28.1528 11.6364C28.1528 9.4354 29.902 7.6453 32.061 7.6453Z"
              fill="url(#paint0_linear_249_413)"/>
        <path d="M67.1863 23.5613V32.8334C67.1863 40.022 61.1072 46.0723 54.1751 46.0723H33.3718C27.6735 46.0723 22.958 50.9618 22.958 56.683V76.5657C22.958 82.2244 27.8662 85.5529 33.3718 87.1763C39.9647 89.1198 46.2868 89.471 54.1751 87.1763C59.4185 85.6543 64.5889 82.5913 64.5889 76.5657V68.6077H43.7856V65.9551H64.5889H75.0027C81.0558 65.9551 83.3114 61.7222 85.4165 55.3688C87.5909 48.8281 87.4984 42.5381 85.4165 34.1476C83.9205 28.1064 81.0635 23.5613 75.0027 23.5613H67.1863ZM55.4859 73.9131C57.645 73.9131 59.3941 75.6866 59.3941 77.8799C59.3941 80.0809 57.645 81.871 55.4859 81.871C53.3346 81.871 51.5777 80.0809 51.5777 77.8799C51.5777 75.6866 53.3346 73.9131 55.4859 73.9131Z"
              fill="url(#paint1_linear_249_413)"/>
    </g>
    <defs>
        <linearGradient id="paint0_linear_249_413" x1="0.664276" y1="1.24414" x2="48.7929" y2="42.1524"
                        gradientUnits="userSpaceOnUse">
            <stop stop-color="#5A9FD4"/>
            <stop offset="1" stop-color="#306998"/>
        </linearGradient>
        <linearGradient id="paint1_linear_249_413" x1="54.9854" y1="77.2108" x2="37.6975" y2="53.0467"
                        gradientUnits="userSpaceOnUse">
            <stop stop-color="#FFD43B"/>
            <stop offset="1" stop-color="#FFE873"/>
        </linearGradient>
        <clipPath id="clip0_249_413">
            <rect width="87" height="88" fill="white" transform="translate(0.283691 0.869873)"/>
        </clipPath>
    </defs>
</svg>
