<svg width="88" height="89" viewBox="0 0 88 89" fill="none" xmlns="http://www.w3.org/2000/svg"><path d="M43.372 5.312c-3.23.015-6.313.291-9.027.773-7.995 1.416-9.446 4.38-9.446 9.845v7.218h18.892v2.406H17.809c-5.49 0-10.298 3.309-11.802 9.603-1.734 7.214-1.811 11.716 0 19.249 1.343 5.607 4.55 9.602 10.04 9.602h6.496v-8.653c0-6.252 5.395-11.766 11.802-11.766h18.87c5.252 0 9.445-4.336 9.445-9.624V15.93c0-5.133-4.319-8.989-9.445-9.845a58.777 58.777 0 0 0-9.843-.773Zm-10.216 5.806c1.951 0 3.545 1.623 3.545 3.62 0 1.99-1.594 3.598-3.545 3.598-1.959 0-3.545-1.609-3.545-3.598 0-1.996 1.586-3.62 3.545-3.62Z" fill="url(#a)"/><path d="M65.016 25.554v8.41c0 6.521-5.514 12.01-11.802 12.01h-18.87c-5.168 0-9.445 4.434-9.445 9.624v18.034c0 5.133 4.452 8.152 9.446 9.625 5.98 1.763 11.714 2.081 18.87 0 4.756-1.38 9.445-4.16 9.445-9.625v-7.218H43.79v-2.406H72.107c5.49 0 7.537-3.84 9.446-9.602 1.972-5.933 1.889-11.639 0-19.25-1.357-5.479-3.948-9.602-9.446-9.602h-7.09ZM54.403 71.226c1.959 0 3.545 1.609 3.545 3.598 0 1.997-1.586 3.62-3.544 3.62-1.952 0-3.546-1.623-3.546-3.62 0-1.99 1.594-3.598 3.546-3.598Z" fill="url(#b)"/><defs><linearGradient id="a" x1="4.677" y1="5.312" x2="48.333" y2="42.418" gradientUnits="userSpaceOnUse"><stop stop-color="#5A9FD4"/><stop offset="1" stop-color="#306998"/></linearGradient><linearGradient id="b" x1="53.95" y1="74.218" x2="38.268" y2="52.299" gradientUnits="userSpaceOnUse"><stop stop-color="#FFD43B"/><stop offset="1" stop-color="#FFE873"/></linearGradient></defs></svg>