<svg width="65" height="64" viewBox="0 0 65 64" fill="none" xmlns="http://www.w3.org/2000/svg"><g clip-path="url(#a)" fill="#fff"><path d="M32.54 0A32.002 32.002 0 0 0 1.15 38.242a32 32 0 0 0 57.994 11.537A32 32 0 0 0 32.54 0Zm-1.282 4.27a5.7 5.7 0 0 1 1.515-1.09 5.86 5.86 0 0 1-.362 10.12 5.754 5.754 0 0 1-1.153-9.03Zm-18.934 7.183a5.865 5.865 0 0 1 6.9 7.415 5.76 5.76 0 0 1-6.9-7.415Zm-7.518 21.83a5.712 5.712 0 0 1-1.09-1.518 5.855 5.855 0 0 1 10.12.365 5.758 5.758 0 0 1-9.03 1.153Zm9.03 19.232a5.7 5.7 0 0 1-1.843-.301 5.858 5.858 0 0 1 7.412-6.898 5.757 5.757 0 0 1-5.569 7.2Zm19.985 7.218a5.772 5.772 0 0 1-1.518 1.09 5.863 5.863 0 0 1 .365-10.122 5.759 5.759 0 0 1 1.153 9.032Zm-1.282-11.245a16.486 16.486 0 1 1 0-32.97c1.157-.001 2.31.121 3.44.364a9.717 9.717 0 1 1 12.8 13.315 16.465 16.465 0 0 1-16.24 19.29Zm20.216 4.059a5.859 5.859 0 0 1-6.9-7.415 5.759 5.759 0 0 1 6.9 7.415Zm-.489-19.293a5.927 5.927 0 0 1-1.026-1.384 5.755 5.755 0 0 1 10.122.365 5.856 5.856 0 0 1-9.095 1.019Z"/><path d="M46.225 32.001c0 .176-.003.355-.008.53a16.467 16.467 0 0 1-.081 1.043 13.621 13.621 0 0 1-2.628 6.617 13.703 13.703 0 0 1-16.903 4.148 13.32 13.32 0 0 1-1.72-.99 14.864 14.864 0 0 1-.336-.233l-.002-.003a9.85 9.85 0 0 1-.329-.244h-.002a11.846 11.846 0 0 1-.633-.517c-.207-.181-.41-.365-.607-.557-.097-.097-.194-.192-.288-.291a12.18 12.18 0 0 1-.817-.924 13.385 13.385 0 0 1-1.74-2.794 13.618 13.618 0 0 1-1.109-7.94c.016-.1.032-.2.05-.3.01-.052.02-.107.034-.16l.032-.16a13.053 13.053 0 0 1 .462-1.68c.126-.373.27-.74.43-1.1a14.257 14.257 0 0 1 1.04-1.91c.166-.254.336-.5.52-.74.181-.244.373-.478.57-.709a12.866 12.866 0 0 1 .745-.808c.021-.024.045-.048.069-.071h.002a13.667 13.667 0 0 1 6.804-3.616 13.486 13.486 0 0 1 1.727-.241 13.594 13.594 0 0 1 3.519.194 9.71 9.71 0 0 0-.12 3.027v.003c.02.19.05.38.083.57a9.712 9.712 0 0 0 2.988 5.448 9.453 9.453 0 0 0 .93.753 9.676 9.676 0 0 0 7.176 1.691c.094.65.141 1.307.142 1.964Z"/><path d="M23.583 42.352Zm-.61-20.144-.067.07.07-.07h-.002Zm-.566 18.996a17.223 17.223 0 0 1-.536-.625 12.18 12.18 0 0 0 .817.925c-.095-.1-.19-.2-.281-.3Zm-.817-17.408Zm-.52.74Zm-.328.526c-.066.11-.129.223-.19.336.064-.113.127-.226.193-.336a11.756 11.756 0 0 1-.003 0Zm-.612 12.724Zm-1.058-8.24c-.018.1-.034.2-.05.3.016-.1.034-.2.053-.3l.031-.16a3.271 3.271 0 0 0-.034.16Z"/></g><defs><clipPath id="a"><path fill="#fff" d="M.54 0h64v64h-64z"/></clipPath></defs></svg>