<svg width="110" height="66" viewBox="0 0 110 66" fill="none" xmlns="http://www.w3.org/2000/svg"><g clip-path="url(#a)"><path fill-rule="evenodd" clip-rule="evenodd" d="M53.945 1.198c-14.269 0-23.187 7.091-26.754 21.273 5.35-7.09 11.593-9.75 18.728-7.977 4.07 1.01 6.98 3.947 10.2 7.195 5.246 5.293 11.319 11.419 24.58 11.419 14.27 0 23.188-7.091 26.755-21.273-5.351 7.09-11.593 9.75-18.728 7.977-4.07-1.01-6.98-3.947-10.2-7.195C73.28 7.324 67.208 1.198 53.946 1.198Zm-26.754 31.91c-14.27 0-23.188 7.09-26.755 21.272 5.351-7.09 11.594-9.75 18.728-7.977 4.071 1.012 6.98 3.947 10.2 7.195 5.247 5.293 11.319 11.419 24.581 11.419 14.27 0 23.188-7.091 26.755-21.273-5.351 7.09-11.594 9.75-18.728 7.977-4.071-1.01-6.98-3.947-10.2-7.195-5.247-5.293-11.319-11.419-24.581-11.419Z" fill="#38BDF8"/></g><defs><clipPath id="a"><path fill="#fff" d="M.209.389h109v65h-109z"/></clipPath></defs></svg>