<svg width="108" height="108" viewBox="0 0 108 108" fill="none" xmlns="http://www.w3.org/2000/svg"><g clip-path="url(#a)"><path d="M0 54V0h108v108H0" fill="#007ACC"/><path d="M23.679 54.189v4.4h14.04v39.96h9.963V58.59h14.04v-4.32c0-2.43 0-4.4-.108-4.454 0-.081-8.559-.108-18.954-.108l-18.9.08v4.429l-.081-.027Zm63.099-4.51c2.754.649 4.86 1.89 6.75 3.862.999 1.08 2.484 2.97 2.592 3.456 0 .162-4.671 3.32-7.506 5.076-.108.08-.54-.378-.972-1.08-1.404-1.998-2.835-2.862-5.076-3.024-3.24-.216-5.4 1.485-5.4 4.32 0 .864.162 1.35.486 2.052.729 1.485 2.079 2.376 6.264 4.212 7.722 3.32 11.07 5.508 13.095 8.64 2.295 3.51 2.808 9.018 1.269 13.149-1.728 4.509-5.94 7.56-11.961 8.559-1.89.324-6.21.27-8.235-.081-4.32-.81-8.451-2.97-10.989-5.751-.999-1.08-2.916-3.97-2.808-4.158l1.026-.648 4.05-2.35 3.051-1.781.702.945c.891 1.404 2.889 3.294 4.05 3.942 3.51 1.809 8.208 1.566 10.53-.54.999-.918 1.431-1.89 1.431-3.24 0-1.242-.189-1.81-.81-2.754-.864-1.188-2.592-2.16-7.452-4.32-5.589-2.376-7.965-3.888-10.179-6.21-1.269-1.404-2.43-3.591-2.97-5.4-.405-1.566-.54-5.4-.162-6.94 1.161-5.4 5.238-9.18 11.07-10.26 1.89-.377 6.345-.215 8.208.27l-.054.055Z" fill="#fff"/></g><defs><clipPath id="a"><path fill="#fff" d="M0 0h108v108H0z"/></clipPath></defs></svg>